<svg xmlns="http://www.w3.org/2000/svg" width="16" height="16" viewBox="0 0 16 16">
    <path fill="#297EF1" fill-rule="evenodd" d="M14.809 10.125a1 1 0 0 1 .455 1.339C13.913 14.203 11.094 16 8 16c-2.365 0-4.544-1.082-6.044-2.78A.986.986 0 0 1 1 14a1 1 0 0 1-1-1V9c0-.063.016-.119.026-.178.006-.027.005-.054.012-.08a.968.968 0 0 1 .148-.32l.025-.027a.983.983 0 0 1 .299-.258.993.993 0 0 1 .769-.09.953.953 0 0 1 .247.115c.027.017.054.029.08.048.01.009.024.013.035.022l3 2.5a1 1 0 0 1 .127 1.408.986.986 0 0 1-.72.352C5.129 13.428 6.522 14 8 14c2.323 0 4.453-1.357 5.47-3.42a1 1 0 0 1 1.339-.455zm1.16-2.912c-.004.02-.003.04-.008.059a.963.963 0 0 1-.156.316c-.012.017-.026.028-.04.043a.956.956 0 0 1-.213.193c-.025.017-.048.034-.075.048a1.034 1.034 0 0 1-.332.116c-.003 0-.006.002-.008.003-.01 0-.017-.003-.026-.002a.985.985 0 0 1-.66-.165c-.023-.015-.047-.025-.068-.042-.007-.006-.016-.007-.023-.014l-3-2.5a1 1 0 0 1-.128-1.408.983.983 0 0 1 .802-.343A6.124 6.124 0 0 0 8 2C5.634 2 3.492 3.365 2.5 5.444a1.001 1.001 0 0 1-1.805-.861C2.017 1.812 4.86 0 8 0a8.117 8.117 0 0 1 6.058 2.714A.987.987 0 0 1 15 2a1 1 0 0 1 1 1v4c0 .076-.016.144-.031.213z"/>
</svg>
