<svg xmlns="http://www.w3.org/2000/svg" width="16" height="16" viewBox="0 0 16 16">
    <path fill="#297EF1" fill-rule="evenodd" d="M11.768 1.024a1.5 1.5 0 0 1 1.227 1.601l-.02.143L12.752 4h.749a1.5 1.5 0 0 1 .144 2.993L13.5 7h-1.294l-.364 2H13.5a1.5 1.5 0 0 1 .144 2.993L13.5 12h-2.203l-.321 1.768a1.5 1.5 0 0 1-2.97-.393l.018-.143L8.248 12H6.297l-.321 1.768a1.5 1.5 0 0 1-2.97-.393l.018-.143L3.248 12H2.5a1.5 1.5 0 0 1-.144-2.993L2.5 9h1.293l.364-2H2.5a1.5 1.5 0 0 1-.144-2.993L2.5 4h2.202l.322-1.768a1.5 1.5 0 0 1 2.97.393l-.018.143L7.75 4h1.951l.322-1.768a1.5 1.5 0 0 1 1.744-1.208zM9.157 7H7.206l-.364 2h1.951l.364-2z"/>
</svg>
