<svg width="1024" height="1024" viewBox="0 0 1024 1024" fill="none" xmlns="http://www.w3.org/2000/svg">
<rect width="1024" height="1024" fill="#020F66"/>
<path d="M632.4 543.75V376.25H512V673.824C533.321 662.832 552.402 650.88 569.243 637.968C611.348 605.865 632.4 574.459 632.4 543.75ZM684 342.75V543.75C684 558.755 680.999 573.63 674.997 588.373C668.995 603.116 661.56 616.203 652.691 627.631C643.822 639.059 633.251 650.182 620.978 661C608.705 671.818 597.373 680.803 586.981 687.957C576.589 695.11 565.75 701.872 554.462 708.24C543.175 714.609 535.157 718.927 530.409 721.195C525.662 723.464 521.854 725.209 518.988 726.43C516.837 727.477 514.508 728 512 728C509.492 728 507.163 727.477 505.012 726.43C502.146 725.209 498.338 723.464 493.591 721.195C488.843 718.927 480.825 714.609 469.538 708.24C458.25 701.872 447.411 695.11 437.019 687.957C426.627 680.803 415.295 671.818 403.022 661C390.749 650.182 380.178 639.059 371.309 627.631C362.44 616.203 355.005 603.116 349.003 588.373C343.001 573.63 340 558.755 340 543.75V342.75C340 338.213 341.702 334.288 345.106 330.973C348.51 327.657 352.541 326 357.2 326H666.8C671.459 326 675.49 327.657 678.894 330.973C682.298 334.288 684 338.213 684 342.75Z" fill="white"/>
<path d="M249.358 174C207.739 174 174 207.592 174 249.031V390.495C174 397.401 179.623 403 186.56 403C193.496 403 199.119 397.401 199.119 390.495V249.031C199.119 221.405 221.612 199.01 249.358 199.01H391.44C398.377 199.01 404 193.412 404 186.505C404 179.599 398.377 174 391.44 174H249.358Z" fill="#2CDDE9"/>
<path d="M633.505 174C626.599 174 621 179.599 621 186.505C621 193.412 626.599 199.01 633.505 199.01H774.969C802.595 199.01 824.99 221.405 824.99 249.031V390.495C824.99 397.401 830.589 403 837.495 403C844.401 403 850 397.401 850 390.495V249.031C850 207.592 816.408 174 774.969 174H633.505Z" fill="#2CDDE9"/>
<path d="M186.56 622C193.496 622 199.119 627.574 199.119 634.451V775.297C199.119 802.802 221.612 825.099 249.358 825.099H391.44C398.377 825.099 404 830.673 404 837.549C404 844.426 398.377 850 391.44 850H249.358C207.739 850 174 816.554 174 775.297V634.451C174 627.574 179.623 622 186.56 622Z" fill="#2CDDE9"/>
<path d="M850 634.451C850 627.574 844.401 622 837.495 622C830.589 622 824.99 627.574 824.99 634.451V775.297C824.99 802.802 802.595 825.099 774.969 825.099H633.505C626.599 825.099 621 830.673 621 837.549C621 844.426 626.599 850 633.505 850H774.969C816.408 850 850 816.554 850 775.297V634.451Z" fill="#2CDDE9"/>
</svg>
