<svg width="600" height="600" viewBox="0 0 600 600" fill="none" xmlns="http://www.w3.org/2000/svg">
<g clip-path="url(#clip0_8150_2)">
<path d="M300 600C465.685 600 600 465.685 600 300C600 134.315 465.685 0 300 0C134.315 0 0 134.315 0 300C0 465.685 134.315 600 300 600Z" fill="#FDB61C"/>
<path d="M163.295 239.457C163.295 209.675 148.206 185.067 120 164.4H185.558C197.116 173.201 206.479 184.557 212.917 197.577C219.355 210.598 222.694 224.932 222.67 239.457C222.694 253.983 219.355 268.316 212.917 281.337C206.479 294.358 197.116 305.712 185.558 314.513C206.845 323.388 218.954 345.048 218.954 376.048V435.116H159.594V376.048C159.594 346.522 145.499 325.856 120.016 314.529C148.222 293.847 163.309 269.254 163.309 239.472L163.295 239.457ZM291.944 239.457C291.944 209.675 276.856 185.067 248.65 164.4H314.224C325.777 173.202 335.138 184.559 341.574 197.579C348.01 210.6 351.344 224.933 351.32 239.457C351.344 253.982 348.01 268.314 341.574 281.334C335.138 294.356 325.777 305.711 314.224 314.513C335.495 323.388 347.62 345.048 347.62 376.048V435.116H288.244V376.048C288.244 346.522 274.133 325.856 248.65 314.529C276.856 293.847 291.944 269.254 291.944 239.472V239.457ZM420.624 239.457C420.624 209.675 405.536 185.067 377.329 164.4H442.889C454.445 173.201 463.808 184.557 470.246 197.577C476.684 210.598 480.023 224.932 480 239.457C480.023 253.983 476.684 268.316 470.246 281.337C463.808 294.358 454.445 305.712 442.889 314.513C464.174 323.388 476.284 345.048 476.284 376.048V435.116H416.909V376.048C416.909 346.522 402.812 325.856 377.329 314.529C405.536 293.847 420.624 269.254 420.624 239.472V239.457Z" fill="#4E2F3A"/>
</g>
<defs>
<clipPath id="clip0_8150_2">
<rect width="600" height="600" fill="white"/>
</clipPath>
</defs>
</svg>
