<svg width="600" height="600" viewBox="0 0 600 600" fill="none" xmlns="http://www.w3.org/2000/svg">
<path d="M546.541 130.894L325.659 6.42239C317.9 2.20772 309.211 0 300.382 0C291.553 0 282.864 2.20772 275.105 6.42239L53.4452 130.894C45.4432 135.406 38.78 141.958 34.1347 149.885C29.4894 157.811 27.0281 166.828 27.0016 176.015V424.181C26.9298 433.389 29.3498 442.444 34.0052 450.388C38.6606 458.331 45.3779 464.867 53.4452 469.302L274.327 592.996C282.072 597.657 290.956 600.08 299.993 599.998C309.017 599.975 317.873 597.559 325.659 592.996L546.541 469.302C554.543 464.791 561.206 458.238 565.852 450.312C570.497 442.386 572.958 433.369 572.985 424.181V176.015C573.213 166.778 570.859 157.66 566.187 149.688C561.515 141.716 554.711 135.208 546.541 130.894Z" fill="url(#paint0_linear_8112_7600)"/>
<path d="M148.767 365.864L135.533 373.705C133.165 375.026 131.082 376.81 129.406 378.951C127.729 381.092 126.493 383.548 125.768 386.175C125.044 388.802 124.846 391.549 125.186 394.254C125.526 396.959 126.397 399.569 127.749 401.932C129.487 405.206 132.065 407.951 135.214 409.882C138.362 411.812 141.967 412.858 145.653 412.909C149.156 412.879 152.611 412.076 155.773 410.557L169.006 402.716C171.374 401.394 173.457 399.611 175.133 397.47C176.81 395.329 178.047 392.873 178.771 390.246C179.496 387.618 179.694 384.872 179.354 382.167C179.014 379.461 178.142 376.851 176.79 374.489C175.588 371.998 173.889 369.783 171.799 367.983C169.709 366.183 167.274 364.836 164.644 364.027C162.014 363.218 159.247 362.963 156.515 363.279C153.784 363.595 151.146 364.475 148.767 365.864ZM229.724 319.602L202.479 335.284C200.111 336.606 198.028 338.389 196.351 340.53C194.674 342.671 193.438 345.127 192.713 347.755C191.989 350.382 191.791 353.128 192.131 355.834C192.471 358.539 193.342 361.149 194.694 363.511C196.433 366.786 199.01 369.531 202.159 371.461C205.308 373.392 208.912 374.437 212.598 374.489C216.102 374.459 219.556 373.656 222.718 372.136L249.963 356.455C252.331 355.133 254.414 353.349 256.09 351.208C257.767 349.067 259.004 346.612 259.728 343.984C260.453 341.357 260.651 338.61 260.311 335.905C259.971 333.2 259.099 330.59 257.747 328.227C256.545 325.736 254.846 323.522 252.756 321.722C250.666 319.922 248.231 318.575 245.601 317.766C242.971 316.956 240.204 316.702 237.472 317.018C234.741 317.334 232.103 318.214 229.724 319.602ZM339.483 281.26C338.386 279.035 336.856 277.056 334.984 275.439C333.111 273.823 330.935 272.603 328.585 271.851V114.171C328.595 111.388 328.058 108.63 327.006 106.057C325.953 103.484 324.405 101.146 322.452 99.1777C320.498 97.2098 318.177 95.6508 315.622 94.5905C313.068 93.5303 310.33 92.9898 307.567 93.0001C304.845 93.009 302.153 93.5685 299.651 94.6455C297.148 95.7225 294.886 97.295 292.998 99.2696C291.11 101.244 289.636 103.581 288.661 106.14C287.687 108.7 287.234 111.431 287.328 114.171V272.557C284.977 273.308 282.801 274.528 280.929 276.145C279.056 277.761 277.526 279.741 276.43 281.966C274.967 284.721 274.138 287.772 274.003 290.894C273.868 294.015 274.432 297.127 275.651 300C274.432 302.873 273.868 305.985 274.003 309.106C274.138 312.228 274.967 315.279 276.43 318.034C277.526 320.259 279.056 322.239 280.929 323.855C282.801 325.472 284.977 326.692 287.328 327.443V485.83C287.328 491.444 289.542 496.829 293.484 500.799C297.425 504.77 302.771 507 308.345 507C313.92 507 319.266 504.77 323.207 500.799C327.149 496.829 329.363 491.444 329.363 485.83V326.659C331.714 325.908 333.89 324.688 335.762 323.071C337.635 321.455 339.165 319.475 340.261 317.25C341.724 314.495 342.553 311.444 342.688 308.322C342.822 305.201 342.259 302.089 341.04 299.216C342.841 293.253 342.283 286.819 339.483 281.26ZM392.494 227.08L365.249 242.761C362.881 244.083 360.798 245.867 359.121 248.008C357.445 250.149 356.208 252.604 355.484 255.232C354.759 257.859 354.561 260.606 354.901 263.311C355.241 266.016 356.113 268.626 357.465 270.989C359.203 274.263 361.781 277.008 364.929 278.938C368.078 280.869 371.683 281.914 375.368 281.966C378.872 281.936 382.326 281.133 385.488 279.614L412.733 263.932C415.101 262.61 417.184 260.827 418.861 258.686C420.537 256.545 421.774 254.089 422.499 251.462C423.223 248.834 423.421 246.088 423.081 243.382C422.741 240.677 421.869 238.067 420.518 235.705C419.315 233.214 417.616 230.999 415.526 229.199C413.437 227.399 411.001 226.052 408.371 225.243C405.741 224.434 402.974 224.179 400.243 224.495C397.511 224.811 394.873 225.691 392.494 227.08ZM457.026 234.921C460.529 234.891 463.984 234.088 467.146 232.568L480.379 224.727C482.744 223.396 484.825 221.607 486.501 219.464C488.178 217.32 489.417 214.864 490.149 212.237C490.88 209.609 491.089 206.862 490.763 204.153C490.437 201.444 489.583 198.826 488.25 196.451C486.917 194.075 485.131 191.988 482.995 190.31C480.859 188.631 478.415 187.395 475.803 186.671C473.19 185.947 470.462 185.75 467.774 186.091C465.086 186.432 462.492 187.305 460.14 188.659L446.906 196.5C444.539 197.822 442.456 199.605 440.779 201.746C439.102 203.887 437.866 206.343 437.141 208.97C436.417 211.598 436.219 214.344 436.559 217.05C436.899 219.755 437.77 222.365 439.122 224.727C440.904 227.906 443.513 230.534 446.668 232.33C449.823 234.126 453.404 235.022 457.026 234.921ZM480.379 373.705L467.146 365.864C462.399 363.192 456.796 362.522 451.56 364.001C446.325 365.479 441.884 368.986 439.209 373.754C436.533 378.522 435.841 384.163 437.284 389.443C438.726 394.724 442.186 399.214 446.906 401.932L460.14 409.773C463.302 411.292 466.756 412.095 470.259 412.125C473.945 412.073 477.55 411.028 480.699 409.098C483.847 407.167 486.425 404.422 488.163 401.148C489.556 398.86 490.462 396.306 490.823 393.647C491.184 390.988 490.992 388.283 490.26 385.703C489.528 383.122 488.272 380.723 486.571 378.658C484.87 376.593 482.761 374.906 480.379 373.705ZM412.655 335.284L385.41 319.602C383.058 318.248 380.464 317.375 377.776 317.034C375.088 316.693 372.36 316.89 369.747 317.614C367.135 318.338 364.691 319.574 362.555 321.253C360.419 322.931 358.633 325.018 357.3 327.394C355.967 329.769 355.113 332.387 354.787 335.096C354.461 337.805 354.67 340.552 355.401 343.18C356.133 345.807 357.372 348.263 359.049 350.407C360.726 352.551 362.806 354.339 365.171 355.671L392.416 371.352C395.578 372.872 399.032 373.675 402.536 373.705C406.222 373.653 409.826 372.608 412.975 370.677C416.124 368.747 418.701 366.001 420.44 362.727C421.857 360.446 422.782 357.891 423.156 355.226C423.529 352.562 423.343 349.848 422.609 347.261C421.875 344.674 420.61 342.271 418.895 340.208C417.181 338.144 415.055 336.467 412.655 335.284ZM202.479 263.148L229.724 278.83C232.886 280.349 236.34 281.152 239.843 281.182C243.529 281.13 247.134 280.085 250.283 278.154C253.431 276.224 256.009 273.479 257.747 270.205C259.099 267.842 259.971 265.232 260.311 262.527C260.651 259.822 260.453 257.075 259.728 254.448C259.004 251.82 257.767 249.365 256.09 247.223C254.414 245.082 252.331 243.299 249.963 241.977L222.718 226.296C220.372 224.934 217.781 224.056 215.095 223.714C212.41 223.371 209.683 223.57 207.075 224.3C204.466 225.03 202.028 226.276 199.903 227.964C197.777 229.653 196.006 231.751 194.694 234.136C192.087 239.063 191.44 244.805 192.886 250.194C194.332 255.583 197.762 260.215 202.479 263.148ZM169.006 196.5L155.773 188.659C153.421 187.305 150.826 186.432 148.138 186.091C145.45 185.75 142.722 185.947 140.11 186.671C137.498 187.395 135.053 188.631 132.917 190.31C130.781 191.988 128.995 194.075 127.662 196.451C126.329 198.826 125.475 201.444 125.149 204.153C124.823 206.862 125.032 209.609 125.764 212.237C126.495 214.864 127.735 217.32 129.411 219.464C131.088 221.607 133.168 223.396 135.533 224.727L148.767 232.568C151.929 234.088 155.383 234.891 158.886 234.921C162.572 234.869 166.177 233.824 169.326 231.893C172.474 229.962 175.052 227.217 176.79 223.943C178.115 221.638 178.965 219.087 179.29 216.444C179.614 213.801 179.407 211.119 178.681 208.557C177.955 205.996 176.724 203.609 175.061 201.537C173.399 199.466 171.34 197.753 169.006 196.5Z" fill="#20133A"/>
<defs>
<linearGradient id="paint0_linear_8112_7600" x1="27.0016" y1="300.021" x2="573.063" y2="300.021" gradientUnits="userSpaceOnUse">
<stop stop-color="#9059FF"/>
<stop offset="1" stop-color="#F770FF"/>
</linearGradient>
</defs>
</svg>
