<svg width="600" height="600" viewBox="0 0 600 600" fill="none" xmlns="http://www.w3.org/2000/svg">
<path d="M589.961 239.564L589.136 237.422L507.449 23.5645C505.814 19.3541 502.873 15.7841 499.061 13.3826C495.253 10.937 490.77 9.76631 486.258 10.0387C481.742 10.2584 477.413 11.9125 473.893 14.7626C470.375 17.6116 467.848 21.5095 466.678 25.8941L411.646 195.154H188.519L133.261 25.8939C132.08 21.5356 129.549 17.6674 126.036 14.848C122.497 12.0352 118.177 10.3946 113.671 10.1524C109.165 9.91011 104.695 11.0782 100.878 13.4955C97.0769 15.909 94.1398 19.4751 92.4917 23.6772L10.8405 237.422L10.0171 239.564C-1.73912 270.393 -3.1888 304.227 5.88702 335.956C14.9629 367.686 34.072 395.595 60.3329 415.474L60.5951 415.663L61.3438 416.227L185.749 509.704L247.296 556.443L284.733 584.847C289.122 588.191 294.48 590 299.989 590C305.498 590 310.856 588.191 315.245 584.847L352.682 556.443L414.229 509.704L539.345 415.775L539.682 415.551C565.948 395.657 585.056 367.733 594.124 335.989C603.194 304.246 601.732 270.4 589.961 239.564Z" fill="#E24329"/>
<path d="M589.96 240.14L589.137 238C549.349 246.191 511.858 263.095 479.345 287.506L300 423.449L414.248 510L539.351 416.168L539.687 415.942C565.949 396.07 585.056 368.176 594.125 336.465C603.194 304.754 601.732 270.944 589.96 240.14Z" fill="#FC6D26"/>
<path d="M184 509.193L245.417 556.23L282.775 584.814C287.155 588.18 292.501 590 297.999 590C303.497 590 308.845 588.18 313.223 584.814L350.581 556.23L412 509.193L297.981 422L184 509.193Z" fill="#FCA326"/>
<path d="M120.62 287.506C88.1118 263.087 50.6245 246.182 10.8418 238L10.0182 240.14C-1.7393 270.937 -3.18913 304.736 5.88762 336.432C14.9644 368.129 34.0755 396.009 60.3391 415.868L60.6013 416.056L61.3501 416.617L185.768 510L300 423.449L120.62 287.506Z" fill="#FC6D26"/>
</svg>
