<svg width="600" height="600" viewBox="0 0 600 600" fill="none" xmlns="http://www.w3.org/2000/svg">
<path d="M451.387 337.504C451.387 365.361 436.387 389.468 413.887 402.325V412.504V450.004C413.887 470.897 397.28 487.504 376.387 487.504C402.637 487.504 427.28 480.54 448.708 468.754C450.315 462.861 451.387 456.432 451.387 450.004V337.504Z" fill="#2D7AAE"/>
<path d="M376.386 262.502H226.922C206.029 262.502 189.422 279.109 189.422 300.002V450.002C189.422 470.895 206.029 487.502 226.922 487.502H376.922C397.815 487.502 414.422 470.895 414.422 450.002V412.502V402.323V300.002C413.886 279.109 397.279 262.502 376.386 262.502ZM338.886 412.502H264.422V337.502H339.422L338.886 412.502Z" fill="url(#paint0_linear_8162_17)"/>
<path d="M237.102 112.5C249.959 90 274.066 75 301.924 75C329.781 75 353.888 90 366.745 112.5H376.924C402.102 112.5 426.745 117.857 449.781 127.5C439.066 55.7143 376.924 0 301.924 0C226.924 0 164.781 55.1786 154.066 127.5C177.102 117.857 201.745 112.5 226.924 112.5H237.102Z" fill="url(#paint1_linear_8162_17)"/>
<path d="M151.922 170.357C173.886 157.5 199.6 150 226.922 150C226.922 136.607 230.672 123.75 237.1 112.5H226.922C201.743 112.5 177.1 117.857 154.065 127.5C152.993 135 152.458 142.5 152.458 150V170.357H151.922Z" fill="#2D7AAE"/>
<path d="M366.211 112.5C372.64 123.75 376.39 136.071 376.39 150C403.711 150 429.425 157.5 451.39 170.357V150C451.39 142.5 450.854 135 449.782 127.5C426.747 117.857 402.104 112.5 376.925 112.5H366.211Z" fill="#2D7AAE"/>
<path d="M451.386 449.998C451.386 456.427 450.315 462.855 448.708 468.748C494.779 443.034 525.85 394.284 525.85 337.498V299.998C525.85 244.819 495.85 196.069 450.85 170.355C428.886 157.498 403.172 149.998 375.85 149.998H226.922C199.6 149.998 173.886 157.498 151.922 170.355C106.922 196.069 76.9219 244.284 76.9219 299.998V449.998C76.9219 532.498 143.886 599.998 226.922 599.998H376.922C376.922 558.748 343.172 524.998 301.922 524.998H226.922C185.672 524.998 151.922 491.248 151.922 449.998V299.998C151.922 258.748 185.672 224.998 226.922 224.998H376.922C418.172 224.998 451.922 258.748 451.922 299.998V337.498L451.386 449.998Z" fill="url(#paint2_linear_8162_17)"/>
<defs>
<linearGradient id="paint0_linear_8162_17" x1="53.9274" y1="127.241" x2="525.212" y2="598.526" gradientUnits="userSpaceOnUse">
<stop stop-color="#3AE7E1"/>
<stop offset="0.9481" stop-color="#1993D2"/>
</linearGradient>
<linearGradient id="paint1_linear_8162_17" x1="188.131" y1="-6.96322" x2="659.416" y2="464.322" gradientUnits="userSpaceOnUse">
<stop stop-color="#3AE7E1"/>
<stop offset="0.9481" stop-color="#1993D2"/>
</linearGradient>
<linearGradient id="paint2_linear_8162_17" x1="53.7581" y1="127.406" x2="525.043" y2="598.691" gradientUnits="userSpaceOnUse">
<stop stop-color="#3AE7E1"/>
<stop offset="0.9481" stop-color="#1993D2"/>
</linearGradient>
</defs>
</svg>
