<svg width="600" height="600" viewBox="0 0 600 600" fill="none" xmlns="http://www.w3.org/2000/svg">
<g clip-path="url(#clip0_8112_4774)">
<path d="M299.836 599.614C465.43 599.614 599.671 465.386 599.671 299.807C599.671 134.228 465.43 0 299.836 0C134.241 0 0 134.228 0 299.807C0 465.386 134.241 599.614 299.836 599.614Z" fill="#DE5833"/>
<path fill-rule="evenodd" clip-rule="evenodd" d="M355.447 567.399C342.912 543.018 330.899 520.588 323.476 505.744C303.683 466.135 283.808 410.252 292.852 374.244C294.502 367.702 274.214 131.858 259.864 124.272C243.92 115.778 209.282 104.591 191.359 101.594C178.878 99.5878 176.019 103.106 170.768 103.903C175.717 104.398 199.248 115.998 203.812 116.658C199.276 119.764 185.833 116.548 177.229 120.368C172.885 122.375 169.641 129.769 169.724 133.26C194.217 130.759 232.484 133.205 255.163 143.266C237.13 145.327 209.749 147.609 197.956 153.821C163.786 171.798 148.694 213.936 157.683 264.403C166.617 314.761 206.258 498.488 218.904 559.84C276.936 573.846 288.474 574.231 355.42 567.481H355.475L355.447 567.399Z" fill="#D5D7D8"/>
<path d="M303.711 365.805C294.722 401.841 314.514 457.641 334.335 497.306C340.988 510.555 351.296 529.906 362.347 551.319C336.534 557.723 273.911 566.657 229.9 551.319C217.309 490.104 177.668 306.349 168.624 255.882C159.635 205.415 168.624 169.379 202.904 151.402C214.643 145.217 231.439 140.709 249.418 138.703C226.738 128.615 199.853 124.712 175.249 127.213C175.139 116.823 193.475 117.427 200.375 112.727C195.839 112.067 184.541 101.897 179.538 101.375C210.711 96.0146 242.793 101.072 270.833 115.778C285.127 123.42 295.216 131.611 301.457 140.215C317.758 143.321 332.136 149.203 341.537 158.604C370.43 187.438 396.215 253.326 385.412 291.204C382.36 301.704 375.405 309.346 366.718 315.695C349.839 327.982 352.836 301.457 310.803 328.944C305.36 332.49 305.36 359.263 303.656 365.805H303.711Z" fill="white"/>
<path fill-rule="evenodd" clip-rule="evenodd" d="M227.206 277.351C237.653 277.351 246.147 268.884 246.147 258.412C246.147 247.939 237.68 239.473 227.206 239.473C216.733 239.473 208.266 247.939 208.266 258.412C208.266 268.884 216.733 277.351 227.206 277.351Z" fill="#2D4F8E"/>
<path d="M235.675 257.008C238.377 257.008 240.568 254.818 240.568 252.115C240.568 249.413 238.377 247.223 235.675 247.223C232.972 247.223 230.781 249.413 230.781 252.115C230.781 254.818 232.972 257.008 235.675 257.008Z" fill="white"/>
<path fill-rule="evenodd" clip-rule="evenodd" d="M353.747 263.414C362.708 263.414 369.993 256.157 369.993 247.169C369.993 238.181 362.736 230.924 353.747 230.924C344.757 230.924 337.5 238.208 337.5 247.169C337.5 256.13 344.757 263.414 353.747 263.414Z" fill="#2D4F8E"/>
<path d="M360.972 245.985C363.295 245.985 365.178 244.103 365.178 241.78C365.178 239.457 363.295 237.574 360.972 237.574C358.649 237.574 356.766 239.457 356.766 241.78C356.766 244.103 358.649 245.985 360.972 245.985Z" fill="white"/>
<path fill-rule="evenodd" clip-rule="evenodd" d="M285.185 331.418C287.082 319.929 316.661 298.296 337.664 296.949C358.639 295.657 365.154 295.959 382.638 291.754C400.177 287.603 445.288 276.361 457.741 270.561C470.222 264.816 523.195 273.42 485.864 294.255C469.727 303.299 426.21 319.901 395.063 329.192C363.972 338.483 345.141 320.286 334.805 335.596C326.613 347.746 333.156 364.376 370.295 367.812C420.464 372.457 468.545 345.217 473.823 359.731C479.128 374.216 430.746 392.221 401.276 392.798C371.807 393.348 312.428 373.309 303.521 367.125C294.587 360.967 282.739 346.482 285.185 331.446V331.418Z" fill="#FDD20A"/>
<path fill-rule="evenodd" clip-rule="evenodd" d="M236.251 447.937C237.406 432.709 307.863 470.312 307.863 470.312L307.918 470.257L311.409 499.642C311.409 499.642 252.69 534.826 244.443 530.125C236.251 525.425 235.042 463.221 236.251 447.937ZM393.605 433.836C383.021 431.5 334.831 467.921 334.831 467.921H334.886L332.632 495.903C332.632 495.903 387.695 518.443 397.096 514.952C406.498 511.351 404.134 436.255 393.605 433.864V433.836Z" fill="#65BC46"/>
<path fill-rule="evenodd" clip-rule="evenodd" d="M290.817 474.271C290.817 498.899 287.27 509.51 297.799 511.846C308.383 514.183 328.341 511.846 335.433 507.146C342.416 502.445 336.588 470.78 334.224 464.87C331.887 458.987 290.762 463.66 290.762 474.271H290.817Z" fill="#43A244"/>
<path fill-rule="evenodd" clip-rule="evenodd" d="M295.328 468.829C295.328 493.458 291.782 504.013 302.311 506.349C312.867 508.741 332.798 506.349 339.89 501.649C346.927 496.949 341.1 465.283 338.735 459.373C336.399 453.491 295.273 458.219 295.273 468.774L295.328 468.829Z" fill="#65BC46"/>
<path fill-rule="evenodd" clip-rule="evenodd" d="M299.808 574.601C451.609 574.601 574.655 451.566 574.655 299.78C574.655 147.993 451.609 24.9863 299.808 24.9863C148.007 24.9863 24.9883 148.021 24.9883 299.807C24.9883 451.594 148.034 574.628 299.835 574.628L299.808 574.601ZM299.808 551.181C438.661 551.181 551.233 438.619 551.233 299.78C551.233 160.94 438.661 48.4057 299.808 48.4057C160.955 48.4057 48.4099 160.967 48.4099 299.807C48.4099 438.647 160.982 551.209 299.835 551.209L299.808 551.181Z" fill="white"/>
</g>
<defs>
<clipPath id="clip0_8112_4774">
<rect width="600" height="600" fill="white"/>
</clipPath>
</defs>
</svg>
