<svg width="600" height="600" viewBox="0 0 600 600" fill="none" xmlns="http://www.w3.org/2000/svg">
<mask id="path-1-inside-1_8155_237" fill="white">
<path fill-rule="evenodd" clip-rule="evenodd" d="M183 13.5338C183 6.05983 189.047 0 196.5 0L403.5 0C410.953 0 417 6.05983 417 13.5338V433.083C417 440.557 410.953 446.617 403.5 446.617H376.5V586.466C376.5 593.94 370.453 600 363 600H237C229.547 600 223.5 593.94 223.5 586.466V446.617H196.5C189.047 446.617 183 440.557 183 433.083L183 13.5338ZM299.988 94.7359C317.385 94.7359 331.488 80.5975 331.488 63.1569C331.488 45.7164 317.385 31.578 299.988 31.578C282.591 31.578 268.488 45.7164 268.488 63.1569C268.488 80.5975 282.591 94.7359 299.988 94.7359Z"/>
</mask>
<path fill-rule="evenodd" clip-rule="evenodd" d="M183 13.5338C183 6.05983 189.047 0 196.5 0L403.5 0C410.953 0 417 6.05983 417 13.5338V433.083C417 440.557 410.953 446.617 403.5 446.617H376.5V586.466C376.5 593.94 370.453 600 363 600H237C229.547 600 223.5 593.94 223.5 586.466V446.617H196.5C189.047 446.617 183 440.557 183 433.083L183 13.5338ZM299.988 94.7359C317.385 94.7359 331.488 80.5975 331.488 63.1569C331.488 45.7164 317.385 31.578 299.988 31.578C282.591 31.578 268.488 45.7164 268.488 63.1569C268.488 80.5975 282.591 94.7359 299.988 94.7359Z" fill="black"/>
<path d="M376.5 446.617V444.617H374.5V446.617H376.5ZM223.5 446.617H225.5V444.617H223.5V446.617ZM196.5 -2C187.938 -2 181 4.95977 181 13.5338H185C185 7.15989 190.156 2 196.5 2V-2ZM403.5 -2L196.5 -2V2L403.5 2V-2ZM419 13.5338C419 4.95977 412.062 -2 403.5 -2V2C409.844 2 415 7.15989 415 13.5338H419ZM419 433.083V13.5338H415V433.083H419ZM403.5 448.617C412.062 448.617 419 441.657 419 433.083H415C415 439.457 409.844 444.617 403.5 444.617V448.617ZM376.5 448.617H403.5V444.617H376.5V448.617ZM378.5 586.466V446.617H374.5V586.466H378.5ZM363 602C371.562 602 378.5 595.04 378.5 586.466H374.5C374.5 592.84 369.344 598 363 598V602ZM237 602H363V598H237V602ZM221.5 586.466C221.5 595.04 228.438 602 237 602V598C230.656 598 225.5 592.84 225.5 586.466H221.5ZM221.5 446.617V586.466H225.5V446.617H221.5ZM196.5 448.617H223.5V444.617H196.5V448.617ZM181 433.083C181 441.657 187.938 448.617 196.5 448.617V444.617C190.156 444.617 185 439.457 185 433.083H181ZM181 13.5338L181 433.083H185L185 13.5338H181ZM329.488 63.1569C329.488 79.4976 316.276 92.7359 299.988 92.7359V96.7359C318.495 96.7359 333.488 81.6973 333.488 63.1569H329.488ZM299.988 33.578C316.276 33.578 329.488 46.8162 329.488 63.1569H333.488C333.488 44.6165 318.495 29.578 299.988 29.578V33.578ZM270.488 63.1569C270.488 46.8162 283.701 33.578 299.988 33.578V29.578C281.482 29.578 266.488 44.6165 266.488 63.1569H270.488ZM299.988 92.7359C283.701 92.7359 270.488 79.4976 270.488 63.1569H266.488C266.488 81.6973 281.482 96.7359 299.988 96.7359V92.7359Z" fill="black" mask="url(#path-1-inside-1_8155_237)"/>
<ellipse cx="299.996" cy="252.632" rx="60.75" ry="60.9023" fill="#FECA62"/>
<rect x="239.246" y="475.939" width="27" height="110.526" fill="#FECA62"/>
<rect x="270.75" y="475.939" width="27" height="94.7368" fill="#FECA62"/>
<path d="M290.231 230.115C285.99 230.081 281.749 230.049 277.508 230.118L292.533 268.001L292.705 268.405C292.825 268.695 292.92 268.994 292.997 269.298C292.872 269.71 292.715 270.112 292.524 270.499L286.644 284.186C288.98 284.211 291.315 284.211 293.651 284.203L300.409 284.186C307.755 266.168 315.124 248.139 322.508 230.102C318.114 230.057 313.72 230.068 309.326 230.102L300.495 255.448H300.313L290.914 230.118L290.231 230.115Z" fill="#4B4D3C"/>
<rect x="302.246" y="475.939" width="27" height="94.7368" fill="#FECA62"/>
<rect x="333.754" y="475.939" width="27" height="110.526" fill="#FECA62"/>
<path fill-rule="evenodd" clip-rule="evenodd" d="M292.524 214.787C292.418 214.173 292.828 213.59 293.441 213.484C297.938 212.705 302.536 212.713 307.031 213.507C307.642 213.615 308.051 214.2 307.943 214.814C307.835 215.427 307.252 215.837 306.64 215.728C302.401 214.979 298.065 214.972 293.824 215.706C293.211 215.812 292.629 215.401 292.524 214.787Z" fill="#4B4D3C"/>
<path fill-rule="evenodd" clip-rule="evenodd" d="M289.601 210.754C289.46 210.147 289.836 209.541 290.441 209.399C296.908 207.888 303.642 207.94 310.085 209.551C310.688 209.702 311.054 210.314 310.904 210.918C310.754 211.523 310.143 211.89 309.54 211.74C303.443 210.215 297.072 210.166 290.952 211.596C290.347 211.738 289.742 211.36 289.601 210.754Z" fill="#4B4D3C"/>
<path fill-rule="evenodd" clip-rule="evenodd" d="M286.522 207.083C286.334 206.489 286.662 205.855 287.254 205.667C295.699 202.984 304.775 203.056 313.177 205.871C313.767 206.068 314.085 206.707 313.888 207.298C313.691 207.889 313.053 208.208 312.464 208.01C304.513 205.346 295.925 205.279 287.934 207.817C287.342 208.005 286.709 207.676 286.522 207.083Z" fill="#4B4D3C"/>
</svg>
