<svg width="600" height="600" viewBox="0 0 600 600" fill="none" xmlns="http://www.w3.org/2000/svg">
<path d="M25 62.5C25 41.7893 41.7893 25 62.5 25H262.5C283.211 25 300 41.7893 300 62.5V487.5C300 508.211 283.211 525 262.5 525H62.5C41.7893 525 25 508.211 25 487.5V62.5Z" fill="#DBE5F6"/>
<path fill-rule="evenodd" clip-rule="evenodd" d="M262.5 37.5H62.5C48.6929 37.5 37.5 48.6929 37.5 62.5V487.5C37.5 501.307 48.6929 512.5 62.5 512.5H262.5C276.307 512.5 287.5 501.307 287.5 487.5V62.5C287.5 48.6929 276.307 37.5 262.5 37.5ZM62.5 25C41.7893 25 25 41.7893 25 62.5V487.5C25 508.211 41.7893 525 62.5 525H262.5C283.211 525 300 508.211 300 487.5V62.5C300 41.7893 283.211 25 262.5 25H62.5Z" fill="#0E3781"/>
<path fill-rule="evenodd" clip-rule="evenodd" d="M137.5 68.75C137.5 65.2982 140.298 62.5 143.75 62.5H181.25C184.702 62.5 187.5 65.2982 187.5 68.75C187.5 72.2018 184.702 75 181.25 75H143.75C140.298 75 137.5 72.2018 137.5 68.75Z" fill="#0E3781"/>
<path d="M275 287.5C275 363.439 224.632 425 162.5 425C100.368 425 50 363.439 50 287.5C50 211.561 100.368 150 162.5 150C224.632 150 275 211.561 275 287.5Z" fill="#FFBF00"/>
<path fill-rule="evenodd" clip-rule="evenodd" d="M162.5 412.5C215.5 412.5 262.5 358.998 262.5 287.5C262.5 216.002 215.5 162.5 162.5 162.5C109.5 162.5 62.5 216.002 62.5 287.5C62.5 358.998 109.5 412.5 162.5 412.5ZM162.5 425C224.632 425 275 363.439 275 287.5C275 211.561 224.632 150 162.5 150C100.368 150 50 211.561 50 287.5C50 363.439 100.368 425 162.5 425Z" fill="#0E3781"/>
<path d="M512.5 262.5C512.5 310.825 473.325 350 425 350C376.675 350 337.5 310.825 337.5 262.5C337.5 214.175 376.675 175 425 175C473.325 175 512.5 214.175 512.5 262.5Z" fill="white"/>
<path fill-rule="evenodd" clip-rule="evenodd" d="M425 337.5C466.421 337.5 500 303.921 500 262.5C500 221.079 466.421 187.5 425 187.5C383.579 187.5 350 221.079 350 262.5C350 303.921 383.579 337.5 425 337.5ZM425 350C473.325 350 512.5 310.825 512.5 262.5C512.5 214.175 473.325 175 425 175C376.675 175 337.5 214.175 337.5 262.5C337.5 310.825 376.675 350 425 350Z" fill="#0E3781"/>
<path fill-rule="evenodd" clip-rule="evenodd" d="M586.918 449.851C592.751 463.933 596.672 478.696 598.603 493.75H312.501V431.25H278.387C286.04 417.667 295.523 405.161 306.592 394.091C322.552 378.131 341.5 365.471 362.352 356.833C383.205 348.196 405.555 343.75 428.126 343.75C450.697 343.75 473.047 348.196 493.9 356.833C514.753 365.471 533.7 378.131 549.66 394.091C565.62 410.051 578.28 428.998 586.918 449.851Z" fill="white"/>
<path fill-rule="evenodd" clip-rule="evenodd" d="M325.001 418.75V481.25H583.75C581.745 472.172 578.944 463.265 575.369 454.635C567.36 435.299 555.621 417.729 540.821 402.93C526.022 388.131 508.453 376.391 489.116 368.382C469.78 360.372 449.056 356.25 428.126 356.25C407.197 356.25 386.472 360.372 367.136 368.382C347.8 376.391 330.23 388.131 315.431 402.93C310.458 407.903 305.83 413.189 301.573 418.75H325.001ZM286.153 418.75C283.388 422.802 280.797 426.973 278.387 431.25H312.501V493.75H598.603C598.065 489.558 597.373 485.389 596.529 481.25C594.34 470.527 591.126 460.011 586.918 449.851C578.28 428.998 565.62 410.051 549.66 394.091C533.7 378.131 514.753 365.471 493.9 356.833C473.047 348.196 450.697 343.75 428.126 343.75C405.555 343.75 383.205 348.196 362.352 356.833C341.5 365.471 322.552 378.131 306.592 394.091C299.008 401.675 292.17 409.933 286.153 418.75Z" fill="#0E3781"/>
<path fill-rule="evenodd" clip-rule="evenodd" d="M293.75 593.75C333.289 593.75 367.468 570.803 383.697 537.5H426.072C429.388 537.5 432.567 536.183 434.911 533.839L450 518.75L464.331 533.081C466.771 535.521 470.729 535.521 473.169 533.081L478.125 528.125L483.081 533.081C485.521 535.521 489.479 535.521 491.919 533.081L506.25 518.75L521.339 533.839C523.683 536.183 526.862 537.5 530.178 537.5H551.072C554.388 537.5 557.567 536.183 559.911 533.839L597.79 495.96C599.011 494.739 599.011 492.761 597.79 491.54L559.911 453.661C557.567 451.317 554.388 450 551.072 450H383.697C367.468 416.697 333.289 393.75 293.75 393.75C238.522 393.75 193.75 438.522 193.75 493.75C193.75 548.978 238.522 593.75 293.75 593.75ZM256.25 512.5C266.605 512.5 275 504.105 275 493.75C275 483.395 266.605 475 256.25 475C245.895 475 237.5 483.395 237.5 493.75C237.5 504.105 245.895 512.5 256.25 512.5Z" fill="#99BAF4"/>
<path fill-rule="evenodd" clip-rule="evenodd" d="M375.883 525H426.072L450 501.072L468.75 519.822L478.125 510.447L487.5 519.822L506.25 501.072L530.178 525H551.072L582.322 493.75L551.072 462.5L375.883 462.5L372.46 455.476C358.246 426.306 328.328 406.25 293.75 406.25C245.425 406.25 206.25 445.425 206.25 493.75C206.25 542.075 245.425 581.25 293.75 581.25C328.328 581.25 358.246 561.194 372.46 532.024L375.883 525ZM597.79 495.96C599.011 494.739 599.011 492.761 597.79 491.54L559.911 453.661C557.567 451.317 554.388 450 551.072 450H383.697C367.468 416.697 333.289 393.75 293.75 393.75C238.522 393.75 193.75 438.522 193.75 493.75C193.75 548.978 238.522 593.75 293.75 593.75C333.289 593.75 367.468 570.803 383.697 537.5H426.072C429.388 537.5 432.567 536.183 434.911 533.839L450 518.75L464.331 533.081C466.77 535.52 470.723 535.521 473.164 533.086C473.166 533.084 473.168 533.082 473.169 533.081L478.125 528.125L483.081 533.081C483.082 533.082 483.084 533.084 483.086 533.086C485.527 535.521 489.48 535.52 491.919 533.081L506.25 518.75L521.339 533.839C523.683 536.183 526.862 537.5 530.178 537.5H551.072C554.388 537.5 557.567 536.183 559.911 533.839L597.79 495.96ZM287.5 493.75C287.5 511.009 273.509 525 256.25 525C238.991 525 225 511.009 225 493.75C225 476.491 238.991 462.5 256.25 462.5C273.509 462.5 287.5 476.491 287.5 493.75ZM275 493.75C275 504.105 266.605 512.5 256.25 512.5C245.895 512.5 237.5 504.105 237.5 493.75C237.5 483.395 245.895 475 256.25 475C266.605 475 275 483.395 275 493.75Z" fill="#0E3781"/>
<path fill-rule="evenodd" clip-rule="evenodd" d="M120.946 213.726C133.873 208.894 147.875 206.25 162.508 206.25C177.141 206.25 191.143 208.894 204.07 213.726C207.303 214.935 210.904 213.293 212.112 210.06C213.321 206.826 211.679 203.226 208.446 202.017C194.14 196.67 178.658 193.75 162.508 193.75C146.358 193.75 130.876 196.67 116.57 202.017C113.337 203.226 111.695 206.826 112.904 210.06C114.112 213.293 117.713 214.935 120.946 213.726ZM162.507 231.25C133.884 231.25 108.472 244.987 92.4977 266.254C90.4246 269.014 86.5067 269.57 83.7468 267.497C80.9868 265.424 80.43 261.506 82.5031 258.746C100.737 234.472 129.787 218.75 162.507 218.75C194.993 218.75 222.112 232.024 241.932 251.829C244.374 254.269 244.375 258.226 241.935 260.668C239.495 263.109 235.538 263.111 233.096 260.671C215.389 242.976 191.365 231.25 162.507 231.25ZM161.635 243.75C121.302 243.75 89.4105 277.917 92.1855 318.154L92.7445 326.261C93.4681 336.753 95.9522 347.049 100.093 356.718L103.623 364.96C104.982 368.134 108.656 369.604 111.829 368.245C115.002 366.886 116.472 363.213 115.113 360.04L111.583 351.797C107.995 343.417 105.842 334.494 105.215 325.401L104.656 317.294C102.379 284.282 128.545 256.25 161.635 256.25C193.179 256.25 218.75 281.821 218.75 313.365V318.75C218.75 322.202 215.952 325 212.5 325C209.048 325 206.25 322.202 206.25 318.75V312.5C206.25 302.442 202.626 291.516 194.834 283.046C186.927 274.453 175.06 268.75 159.375 268.75C143.079 268.75 132.565 276.172 126.4 285.656C120.474 294.774 118.75 305.444 118.75 312.5C118.75 329.952 120.315 342.661 124.7 353.185C129.153 363.873 136.248 371.676 145.999 379.801C148.651 382.011 152.592 381.653 154.801 379.001C157.011 376.349 156.653 372.408 154.001 370.199C145.002 362.699 139.597 356.44 136.238 348.377C132.81 340.151 131.25 329.423 131.25 312.5C131.25 307.056 132.651 298.976 136.881 292.469C140.872 286.328 147.546 281.25 159.375 281.25C171.815 281.25 180.26 285.668 185.635 291.51C191.124 297.475 193.75 305.299 193.75 312.5V318.75C193.75 329.105 202.145 337.5 212.5 337.5C222.855 337.5 231.25 329.105 231.25 318.75V313.365C231.25 274.918 200.082 243.75 161.635 243.75ZM155.975 312.126C155.97 308.968 158.581 306.25 162.151 306.25C165.795 306.25 168.75 309.205 168.75 312.849V323.077C168.75 334.124 173.951 344.526 182.788 351.154L187.917 355C194.408 359.868 202.303 362.5 210.417 362.5H212.5C215.952 362.5 218.75 359.702 218.75 356.25C218.75 352.798 215.952 350 212.5 350H210.417C205.007 350 199.744 348.246 195.417 345L190.288 341.154C184.599 336.886 181.25 330.189 181.25 323.077V312.849C181.25 302.301 172.699 293.75 162.151 293.75C152.084 293.75 143.458 301.669 143.475 312.146C143.485 318.296 143.718 326.016 144.582 333.176C145.519 340.941 149.289 347.036 153.304 352.121C155.135 354.441 157.125 356.68 158.986 358.774L159.481 359.332C161.532 361.641 163.427 363.803 165.122 366.039C169.267 371.505 170.375 375.983 169.197 378.929C167.915 382.134 169.474 385.771 172.679 387.053C175.884 388.335 179.521 386.776 180.803 383.571C184.581 374.125 179.776 364.676 175.082 358.486C173.06 355.819 170.867 353.328 168.829 351.033L168.372 350.519C166.462 348.368 164.709 346.396 163.115 344.376C159.699 340.049 157.529 336.127 156.992 331.678C156.213 325.218 155.985 318.05 155.975 312.126Z" fill="#0E3781"/>
</svg>
