<svg width="600" height="600" viewBox="0 0 600 600" fill="none" xmlns="http://www.w3.org/2000/svg">
<g clip-path="url(#clip0_8112_7666)">
<mask id="mask0_8112_7666" style="mask-type:luminance" maskUnits="userSpaceOnUse" x="80" y="0" width="455" height="600">
<path d="M307.201 0C306.785 0.00910435 306.371 0.0492157 305.961 0.12C72.3008 17.52 75.5608 239.96 81.8408 330.44C82.3408 337.74 116.861 599.88 142.081 600C176.881 600.16 159.481 552.92 159.481 552.92C159.481 552.92 213.221 568.44 305.961 569.04H308.461C401.181 568.44 454.921 552.92 454.921 552.92C454.921 552.92 437.521 600.16 472.321 600C497.521 599.88 532.061 337.74 532.581 330.44C538.861 239.96 542.121 17.52 308.461 0.12C308.461 0.12 307.781 0 307.341 0H307.201" fill="white"/>
</mask>
<g mask="url(#mask0_8112_7666)">
<path d="M307.201 0C306.785 0.00910435 306.371 0.0492157 305.961 0.12C72.3008 17.52 75.5608 239.96 81.8408 330.44C82.3408 337.74 116.861 599.88 142.081 600C176.881 600.16 159.481 552.92 159.481 552.92C159.481 552.92 213.221 568.44 305.961 569.04H308.461C401.181 568.44 454.921 552.92 454.921 552.92C454.921 552.92 437.521 600.16 472.321 600C497.521 599.88 532.061 337.74 532.581 330.44C538.861 239.96 542.121 17.52 308.461 0.12C308.461 0.12 307.781 0 307.341 0L307.201 0Z" fill="url(#paint0_linear_8112_7666)"/>
</g>
<mask id="mask1_8112_7666" style="mask-type:luminance" maskUnits="userSpaceOnUse" x="80" y="0" width="455" height="600">
<path d="M307.201 0C306.785 0.00910435 306.371 0.0492157 305.961 0.12C72.3008 17.52 75.5608 239.96 81.8408 330.44C82.3408 337.74 116.861 599.88 142.081 600C176.881 600.16 159.481 552.92 159.481 552.92C159.481 552.92 213.221 568.44 305.961 569.04H308.461C401.181 568.44 454.921 552.92 454.921 552.92C454.921 552.92 437.521 600.16 472.321 600C497.521 599.88 532.061 337.74 532.581 330.44C538.861 239.96 542.121 17.52 308.461 0.12C308.461 0.12 307.781 0 307.341 0H307.201" fill="white"/>
</mask>
<g mask="url(#mask1_8112_7666)">
<path d="M405.081 232.401C410.595 232.39 415.879 230.195 419.777 226.297C423.676 222.398 425.871 217.114 425.881 211.601C425.876 206.086 423.683 200.798 419.783 196.899C415.884 192.999 410.596 190.806 405.081 190.801C399.568 190.811 394.284 193.006 390.385 196.905C386.487 200.803 384.292 206.088 384.281 211.601C384.301 223.081 393.601 232.401 405.081 232.401Z" fill="#1A1A1A"/>
</g>
<mask id="mask2_8112_7666" style="mask-type:luminance" maskUnits="userSpaceOnUse" x="80" y="0" width="455" height="600">
<path d="M307.201 0C306.785 0.00910435 306.371 0.0492157 305.961 0.12C72.3008 17.52 75.5608 239.96 81.8408 330.44C82.3408 337.74 116.861 599.88 142.081 600C176.881 600.16 159.481 552.92 159.481 552.92C159.481 552.92 213.221 568.44 305.961 569.04H308.461C401.181 568.44 454.921 552.92 454.921 552.92C454.921 552.92 437.521 600.16 472.321 600C497.521 599.88 532.061 337.74 532.581 330.44C538.861 239.96 542.121 17.52 308.461 0.12C308.461 0.12 307.781 0 307.341 0H307.201" fill="white"/>
</mask>
<g mask="url(#mask2_8112_7666)">
<path d="M413.321 209.04C414.853 208.916 416.283 208.219 417.325 207.089C418.368 205.959 418.947 204.477 418.947 202.94C418.947 201.402 418.368 199.921 417.325 198.791C416.283 197.661 414.853 196.964 413.321 196.84C411.788 196.964 410.359 197.661 409.316 198.791C408.274 199.921 407.695 201.402 407.695 202.94C407.695 204.477 408.274 205.959 409.316 207.089C410.359 208.219 411.788 208.916 413.321 209.04Z" fill="white"/>
</g>
<mask id="mask3_8112_7666" style="mask-type:luminance" maskUnits="userSpaceOnUse" x="80" y="0" width="455" height="600">
<path d="M307.201 0C306.785 0.00910435 306.371 0.0492157 305.961 0.12C72.3008 17.52 75.5608 239.96 81.8408 330.44C82.3408 337.74 116.861 599.88 142.081 600C176.881 600.16 159.481 552.92 159.481 552.92C159.481 552.92 213.221 568.44 305.961 569.04H308.461C401.181 568.44 454.921 552.92 454.921 552.92C454.921 552.92 437.521 600.16 472.321 600C497.521 599.88 532.061 337.74 532.581 330.44C538.861 239.96 542.121 17.52 308.461 0.12C308.461 0.12 307.781 0 307.341 0H307.201" fill="white"/>
</mask>
<g mask="url(#mask3_8112_7666)">
<path d="M208.261 232.401C213.774 232.39 219.059 230.195 222.957 226.297C226.856 222.398 229.05 217.114 229.061 211.601C229.056 206.086 226.863 200.798 222.963 196.899C219.063 192.999 213.776 190.806 208.261 190.801C202.748 190.811 197.463 193.006 193.565 196.905C189.666 200.803 187.472 206.088 187.461 211.601C187.481 223.081 196.781 232.401 208.261 232.401Z" fill="#1A1A1A"/>
</g>
<mask id="mask4_8112_7666" style="mask-type:luminance" maskUnits="userSpaceOnUse" x="80" y="0" width="455" height="600">
<path d="M307.201 0C306.785 0.00910435 306.371 0.0492157 305.961 0.12C72.3008 17.52 75.5608 239.96 81.8408 330.44C82.3408 337.74 116.861 599.88 142.081 600C176.881 600.16 159.481 552.92 159.481 552.92C159.481 552.92 213.221 568.44 305.961 569.04H308.461C401.181 568.44 454.921 552.92 454.921 552.92C454.921 552.92 437.521 600.16 472.321 600C497.521 599.88 532.061 337.74 532.581 330.44C538.861 239.96 542.121 17.52 308.461 0.12C308.461 0.12 307.781 0 307.341 0H307.201" fill="white"/>
</mask>
<g mask="url(#mask4_8112_7666)">
<path d="M217.721 209.04C219.254 208.916 220.683 208.219 221.726 207.089C222.768 205.959 223.347 204.477 223.347 202.94C223.347 201.402 222.768 199.921 221.726 198.791C220.683 197.661 219.254 196.964 217.721 196.84C216.103 196.84 214.552 197.483 213.408 198.626C212.264 199.77 211.621 201.322 211.621 202.94C211.621 204.558 212.264 206.109 213.408 207.253C214.552 208.397 216.103 209.04 217.721 209.04Z" fill="white"/>
</g>
<mask id="mask5_8112_7666" style="mask-type:luminance" maskUnits="userSpaceOnUse" x="80" y="0" width="455" height="600">
<path d="M307.201 0C306.785 0.00910435 306.371 0.0492157 305.961 0.12C72.3008 17.52 75.5608 239.96 81.8408 330.44C82.3408 337.74 116.861 599.88 142.081 600C176.881 600.16 159.481 552.92 159.481 552.92C159.481 552.92 213.221 568.44 305.961 569.04H308.461C401.181 568.44 454.921 552.92 454.921 552.92C454.921 552.92 437.521 600.16 472.321 600C497.521 599.88 532.061 337.74 532.581 330.44C538.861 239.96 542.121 17.52 308.461 0.12C308.461 0.12 307.781 0 307.341 0H307.201" fill="white"/>
</mask>
<g mask="url(#mask5_8112_7666)">
<path d="M342.321 271.759C341.222 270.839 339.804 270.387 338.374 270.503C336.945 270.619 335.618 271.293 334.681 272.379C334.581 272.499 324.761 283.519 306.901 283.519C287.861 283.519 280.261 273.859 279.501 272.839C279.097 272.25 278.58 271.746 277.981 271.356C277.382 270.966 276.711 270.698 276.008 270.567C274.589 270.302 273.122 270.613 271.931 271.429C270.74 272.246 269.923 273.503 269.658 274.922C269.394 276.342 269.704 277.809 270.521 278.999C270.941 279.619 281.201 294.399 306.921 294.399C329.961 294.399 342.421 280.079 342.941 279.479C343.884 278.376 344.351 276.943 344.238 275.495C344.126 274.048 343.424 272.704 342.321 271.759Z" fill="#1A1A1A"/>
</g>
<mask id="mask6_8112_7666" style="mask-type:luminance" maskUnits="userSpaceOnUse" x="80" y="0" width="455" height="600">
<path d="M307.201 0C306.785 0.00910435 306.371 0.0492157 305.961 0.12C72.3008 17.52 75.5608 239.96 81.8408 330.44C82.3408 337.74 116.861 599.88 142.081 600C176.881 600.16 159.481 552.92 159.481 552.92C159.481 552.92 213.221 568.44 305.961 569.04H308.461C401.181 568.44 454.921 552.92 454.921 552.92C454.921 552.92 437.521 600.16 472.321 600C497.521 599.88 532.061 337.74 532.581 330.44C538.861 239.96 542.121 17.52 308.461 0.12C308.461 0.12 307.781 0 307.341 0H307.201" fill="white"/>
</mask>
<g mask="url(#mask6_8112_7666)">
<path d="M416.721 409.92L308.141 474.02L199.541 409.92V409.74C199.641 409.34 205.641 404.34 214.781 396.9L215.021 396.7C245.021 372.3 308.141 322.4 308.141 322.4C308.141 322.4 371.261 372.32 401.241 396.68C410.521 404.22 416.641 409.32 416.721 409.74V409.92Z" fill="#A7A9AC"/>
</g>
<mask id="mask7_8112_7666" style="mask-type:luminance" maskUnits="userSpaceOnUse" x="80" y="0" width="455" height="600">
<path d="M307.201 0C306.785 0.00910435 306.371 0.0492157 305.961 0.12C72.3008 17.52 75.5608 239.96 81.8408 330.44C82.3408 337.74 116.861 599.88 142.081 600C176.881 600.16 159.481 552.92 159.481 552.92C159.481 552.92 213.221 568.44 305.961 569.04H308.461C401.181 568.44 454.921 552.92 454.921 552.92C454.921 552.92 437.521 600.16 472.321 600C497.521 599.88 532.061 337.74 532.581 330.44C538.861 239.96 542.121 17.52 308.461 0.12C308.461 0.12 307.781 0 307.341 0H307.201" fill="white"/>
</mask>
<g mask="url(#mask7_8112_7666)">
<path d="M264.281 483.4H381.461C383.853 483.4 386.221 482.929 388.43 482.013C390.64 481.097 392.647 479.755 394.337 478.062C396.028 476.37 397.368 474.362 398.281 472.151C399.195 469.941 399.664 467.572 399.661 465.18V335.78C399.661 330.953 397.743 326.324 394.33 322.911C390.917 319.498 386.288 317.58 381.461 317.58H234.661C229.834 317.58 225.205 319.498 221.792 322.911C218.378 326.324 216.461 330.953 216.461 335.78V435.5L264.281 483.4Z" fill="white"/>
</g>
<mask id="mask8_8112_7666" style="mask-type:luminance" maskUnits="userSpaceOnUse" x="80" y="0" width="455" height="600">
<path d="M307.201 0C306.785 0.00910435 306.371 0.0492157 305.961 0.12C72.3008 17.52 75.5608 239.96 81.8408 330.44C82.3408 337.74 116.861 599.88 142.081 600C176.881 600.16 159.481 552.92 159.481 552.92C159.481 552.92 213.221 568.44 305.961 569.04H308.461C401.181 568.44 454.921 552.92 454.921 552.92C454.921 552.92 437.521 600.16 472.321 600C497.521 599.88 532.061 337.74 532.581 330.44C538.861 239.96 542.121 17.52 308.461 0.12C308.461 0.12 307.781 0 307.341 0H307.201" fill="white"/>
</mask>
<g mask="url(#mask8_8112_7666)">
<path d="M416.741 410.539V514.839C416.73 518.347 415.332 521.709 412.851 524.189C410.371 526.67 407.009 528.068 403.501 528.079H212.741C209.236 528.068 205.879 526.669 203.405 524.187C200.93 521.705 199.541 518.344 199.541 514.839V410.539L308.141 474.639L416.741 410.539Z" fill="#D1D3D4"/>
</g>
<mask id="mask9_8112_7666" style="mask-type:luminance" maskUnits="userSpaceOnUse" x="80" y="0" width="455" height="600">
<path d="M307.201 0C306.785 0.00910435 306.371 0.0492157 305.961 0.12C72.3008 17.52 75.5608 239.96 81.8408 330.44C82.3408 337.74 116.861 599.88 142.081 600C176.881 600.16 159.481 552.92 159.481 552.92C159.481 552.92 213.221 568.44 305.961 569.04H308.461C401.181 568.44 454.921 552.92 454.921 552.92C454.921 552.92 437.521 600.16 472.321 600C497.521 599.88 532.061 337.74 532.581 330.44C538.861 239.96 542.121 17.52 308.461 0.12C308.461 0.12 307.781 0 307.341 0H307.201" fill="white"/>
</mask>
<g mask="url(#mask9_8112_7666)">
<path d="M413.04 524L343.14 454L308.12 474.68L273.06 454L203.16 523.96C204.384 525.271 205.864 526.316 207.508 527.032C209.153 527.748 210.927 528.118 212.72 528.12H403.48C405.273 528.114 407.046 527.742 408.69 527.027C410.334 526.312 411.814 525.268 413.04 523.96" fill="#F4F4F4"/>
</g>
<mask id="mask10_8112_7666" style="mask-type:luminance" maskUnits="userSpaceOnUse" x="80" y="0" width="455" height="600">
<path d="M307.201 0C306.785 0.00910435 306.371 0.0492157 305.961 0.12C72.3008 17.52 75.5608 239.96 81.8408 330.44C82.3408 337.74 116.861 599.88 142.081 600C176.881 600.16 159.481 552.92 159.481 552.92C159.481 552.92 213.221 568.44 305.961 569.04H308.461C401.181 568.44 454.921 552.92 454.921 552.92C454.921 552.92 437.521 600.16 472.321 600C497.521 599.88 532.061 337.74 532.581 330.44C538.861 239.96 542.121 17.52 308.461 0.12C308.461 0.12 307.781 0 307.341 0H307.201" fill="white"/>
</mask>
<g mask="url(#mask10_8112_7666)">
<path d="M84.9013 355.141C87.3213 412.101 108.281 478.281 155.021 500.721C200.781 522.661 274.701 515.121 275.201 500.121C275.481 491.981 267.661 494.301 268.161 487.521C268.821 478.361 283.961 483.081 282.921 472.361C282.061 463.681 267.181 469.161 266.601 460.561C265.841 449.641 280.281 451.561 273.301 441.041C266.321 430.541 248.501 458.941 196.541 444.341C149.681 431.161 133.781 397.201 127.041 346.941C120.301 296.641 83.0413 311.101 84.9013 355.141ZM530.441 355.141C528.041 412.101 507.081 478.281 460.321 500.721C414.561 522.661 340.641 515.121 340.141 500.121C339.881 491.981 347.681 494.301 347.181 487.521C346.521 478.361 331.361 483.081 332.421 472.361C333.281 463.681 348.181 469.161 348.761 460.561C349.501 449.641 335.081 451.561 342.041 441.041C349.041 430.541 366.841 458.941 418.801 444.341C465.661 431.161 481.561 397.201 488.301 346.941C495.041 296.641 532.301 311.101 530.441 355.141Z" fill="#179BC9"/>
</g>
<mask id="mask11_8112_7666" style="mask-type:luminance" maskUnits="userSpaceOnUse" x="80" y="0" width="455" height="600">
<path d="M307.201 0C306.785 0.00910435 306.371 0.0492157 305.961 0.12C72.3008 17.52 75.5608 239.96 81.8408 330.44C82.3408 337.74 116.861 599.88 142.081 600C176.881 600.16 159.481 552.92 159.481 552.92C159.481 552.92 213.221 568.44 305.961 569.04H308.461C401.181 568.44 454.921 552.92 454.921 552.92C454.921 552.92 437.521 600.16 472.321 600C497.521 599.88 532.061 337.74 532.581 330.44C538.861 239.96 542.121 17.52 308.461 0.12C308.461 0.12 307.781 0 307.341 0H307.201" fill="white"/>
</mask>
<g mask="url(#mask11_8112_7666)">
<path d="M84.9013 350.301C87.3213 407.261 108.281 473.461 155.021 495.901C200.781 517.841 274.701 510.301 275.201 495.281C275.481 487.141 267.661 489.481 268.161 482.681C268.821 473.521 283.961 478.241 282.921 467.541C282.061 458.861 267.181 464.341 266.601 455.741C265.841 444.801 280.281 446.721 273.301 436.221C266.321 425.701 248.501 454.121 196.541 439.501C149.681 426.321 133.781 392.381 127.041 342.101C120.301 291.801 83.0413 306.261 84.9013 350.301ZM530.441 350.301C528.041 407.261 507.081 473.461 460.321 495.901C414.561 517.841 340.641 510.301 340.141 495.281C339.881 487.141 347.681 489.481 347.181 482.681C346.521 473.521 331.361 478.241 332.421 467.541C333.281 458.861 348.181 464.341 348.761 455.741C349.501 444.801 335.081 446.721 342.041 436.221C349.041 425.701 366.841 454.121 418.801 439.501C465.661 426.321 481.561 392.381 488.301 342.101C495.041 291.801 532.301 306.261 530.441 350.301Z" fill="#27AAE1"/>
</g>
<mask id="mask12_8112_7666" style="mask-type:luminance" maskUnits="userSpaceOnUse" x="297" y="382" width="25" height="21">
<path d="M306.14 393.139L300.94 389.379L297.34 392.539L305.98 402.159H306L321.48 386.419L318.74 382.779L306.14 393.139Z" fill="white"/>
</mask>
<g mask="url(#mask12_8112_7666)">
<path d="M306.14 393.139L300.94 389.379L297.34 392.539L305.98 402.159L321.48 386.419L318.74 382.779L306.14 393.139Z" fill="url(#paint1_linear_8112_7666)"/>
</g>
<mask id="mask13_8112_7666" style="mask-type:luminance" maskUnits="userSpaceOnUse" x="268" y="351" width="80" height="80">
<path d="M268.361 390.98C268.357 396.181 269.378 401.331 271.364 406.137C273.351 410.943 276.264 415.31 279.939 418.99C283.613 422.67 287.976 425.591 292.779 427.584C297.582 429.578 302.731 430.606 307.931 430.61C313.132 430.614 318.282 429.594 323.088 427.607C327.894 425.621 332.262 422.707 335.942 419.033C339.622 415.358 342.542 410.995 344.535 406.192C346.529 401.389 347.557 396.241 347.561 391.04C347.569 380.538 343.405 370.462 335.984 363.03C328.563 355.598 318.494 351.418 307.991 351.41C297.489 351.402 287.413 355.567 279.981 362.988C272.549 370.408 268.369 380.478 268.361 390.98ZM286.121 378.38L307.921 369.08L329.741 378.38C329.741 378.38 328.301 412.86 307.941 412.86C287.581 412.86 286.121 378.4 286.121 378.4" fill="white"/>
</mask>
<g mask="url(#mask13_8112_7666)">
<path d="M268.361 390.98C268.357 396.181 269.378 401.331 271.364 406.137C273.351 410.943 276.264 415.31 279.939 418.99C283.613 422.67 287.976 425.591 292.779 427.584C297.582 429.578 302.731 430.606 307.931 430.61C313.132 430.614 318.282 429.594 323.088 427.607C327.894 425.621 332.262 422.707 335.942 419.033C339.622 415.358 342.542 410.995 344.535 406.192C346.529 401.389 347.557 396.241 347.561 391.04C347.569 380.538 343.405 370.462 335.984 363.03C328.563 355.598 318.494 351.418 307.991 351.41C297.489 351.402 287.413 355.567 279.981 362.988C272.549 370.408 268.369 380.478 268.361 390.98ZM286.121 378.38L307.921 369.08L329.741 378.38C329.741 378.38 328.301 412.86 307.941 412.86C287.581 412.86 286.121 378.38 286.121 378.38Z" fill="url(#paint2_linear_8112_7666)"/>
</g>
<path d="M513.657 517.366V517.537H513.174V518.801H512.977V517.537H512.493V517.366H513.657ZM513.831 517.366H514.109L514.521 518.579L514.931 517.366H515.206V518.801H515.021V517.954C515.021 517.925 515.022 517.876 515.023 517.809C515.025 517.741 515.025 517.668 515.025 517.591L514.616 518.801H514.424L514.012 517.591V517.635C514.012 517.67 514.012 517.724 514.014 517.796C514.016 517.868 514.017 517.92 514.017 517.954V518.801H513.831V517.366Z" fill="#43B0E3"/>
</g>
<defs>
<linearGradient id="paint0_linear_8112_7666" x1="22800.3" y1="-1669.2" x2="22800.3" y2="59784" gradientUnits="userSpaceOnUse">
<stop stop-color="#5EB8E6"/>
<stop offset="1" stop-color="#26A8DF"/>
</linearGradient>
<linearGradient id="paint1_linear_8112_7666" x1="297.364" y1="1351.76" x2="2711.48" y2="1351.76" gradientUnits="userSpaceOnUse">
<stop stop-color="#8CC63F"/>
<stop offset="1" stop-color="#38B549"/>
</linearGradient>
<linearGradient id="paint2_linear_8112_7666" x1="268.282" y1="4311.33" x2="8188.44" y2="4311.33" gradientUnits="userSpaceOnUse">
<stop stop-color="#8CC63F"/>
<stop offset="1" stop-color="#38B549"/>
</linearGradient>
<clipPath id="clip0_8112_7666">
<rect width="600" height="600" fill="white"/>
</clipPath>
</defs>
</svg>
