<svg width="600" height="600" viewBox="0 0 600 600" fill="none" xmlns="http://www.w3.org/2000/svg">
<g clip-path="url(#clip0_8165_401)">
<path d="M196.215 141.396C181.218 141.396 169.08 153.535 169.08 168.532C169.08 183.53 181.218 195.668 196.215 195.668C211.161 195.668 223.273 183.608 223.351 168.662C223.429 153.691 211.369 141.474 196.397 141.396C196.345 141.396 196.267 141.396 196.215 141.396ZM123.438 217.397V252.954H172.251V372.726H189.743V304.678H202.479V372.726H220.232V217.501H123.541L123.438 217.397ZM352.947 230.783H352.401C345.227 220.386 330.854 213.238 311.438 213.238C274.217 213.238 241.519 243.831 241.779 296.205C241.779 344.602 271.306 376.234 308.267 376.234C328.203 376.234 347.255 367.215 356.638 350.242L359.679 372.726H401.396V144.957H353.051L352.947 230.783ZM352.947 303.379C352.947 307.122 352.661 310.865 352.141 314.555C349.412 328.123 337.404 337.844 323.55 337.688C303.614 337.688 290.592 321.209 290.592 294.62C290.592 270.161 301.743 250.433 323.81 250.433C338.963 250.433 349.36 261.35 352.271 274.112C352.713 277.023 352.895 279.96 352.817 282.897L352.947 303.379Z" fill="#FEBD3E"/>
<path d="M56.2467 409.427H69.2428L97.5481 467.753H85.5918L79.5096 454.341H45.72L39.5339 467.753H27.5256L56.2467 409.427ZM74.935 444.568L62.7448 418.576L50.5545 444.568H74.935ZM113.117 409.427H124.58V457.642H166.869V467.753H113.117V409.427ZM183.556 409.427H194.94V457.642H237.203V467.753H183.556V409.427ZM254.722 409.427H266.106V467.753H254.722V409.427ZM311.099 409.427H324.095L352.4 467.753H340.314L334.231 454.341H300.676L294.49 467.753H282.377L311.099 409.427ZM329.917 444.568L317.727 418.576L305.536 444.568H329.917ZM367.969 409.427H380.003L418.991 451.534V409.427H429.908V467.753H419.511L378.886 424.087V467.753H367.969V409.427ZM511.419 446.986C510.275 453.458 505.623 469.183 478.851 469.183C460.397 469.183 445.867 458.786 445.867 437.655C445.867 420.656 456.55 407.998 479.657 407.998C505.649 407.998 509.574 424.918 510.457 428.038H499.047C498.423 426.036 493.849 417.641 480.281 417.641C464.166 417.641 457.434 426.712 457.434 438.824C457.434 452.21 467.129 459.28 479.657 459.28C492.965 459.28 498.813 451.326 499.931 446.856L511.419 446.986ZM527.872 409.427H580.168V419.226H539.257V432.768H574.424V442.567H539.257V457.876H581.13V467.675H527.872V409.427ZM120.057 175.915L131.936 135.913C128.635 134.821 125.256 133.938 121.851 133.314C106.255 129.779 90.0364 130.299 74.7011 134.795C71.5041 135.731 68.411 136.953 65.4739 138.486C59.3658 141.553 53.7775 145.556 48.917 150.365C36.4148 162.607 30.0728 179.242 30.0728 199.75V217.45H0V252.903H29.9688V372.726H77.9761V252.903H107.971V217.502H77.9761V198.762C77.5862 192.316 79.6136 185.974 83.6943 180.983C84.1882 180.437 84.734 179.918 85.3058 179.424C85.3058 179.424 95.6767 169.183 120.057 175.915ZM507.65 213.369C457.408 213.369 424.476 245.521 424.476 296.05C424.476 346.579 459.305 376.339 504.791 376.339C546.378 376.339 586.692 350.347 586.692 293.165C586.64 246.327 555.008 213.369 507.65 213.369ZM506.065 341.536C485.271 341.536 474.173 321.6 474.173 294.75C474.173 271.877 483.192 248.225 506.065 248.225C528.938 248.225 536.917 271.617 536.917 294.49C536.917 322.926 524.857 341.536 506.065 341.536ZM562.338 197.722H568.134V212.46H571.643V197.696H577.413V194.759H562.338V197.722ZM594.984 194.785L590.435 207.417L585.912 194.785H580.844V212.46H584.093V198.164L589.031 212.434H591.865L596.751 198.164V212.434H600V194.759H594.984V194.785Z" fill="#231F20"/>
</g>
<defs>
<clipPath id="clip0_8165_401">
<rect width="600" height="338.182" fill="white" transform="translate(0 131)"/>
</clipPath>
</defs>
</svg>
