<svg width="600" height="600" viewBox="0 0 600 600" fill="none" xmlns="http://www.w3.org/2000/svg">
<rect x="9" y="9" width="582" height="582" rx="50" fill="#1DC639"/>
<path d="M299.5 56C240.289 56.0691 183.115 77.5786 138.594 116.535L142.615 120.547C186.1 82.5423 241.907 61.5425 299.71 61.4336C350.898 61.5341 400.703 78.0242 441.8 108.479L445.61 104.677C403.434 73.1649 352.187 56.0916 299.5 56Z" fill="white"/>
<path d="M471.354 126.581L467.554 130.374C490.099 152.544 508.009 178.961 520.246 208.092C532.483 237.223 538.803 268.488 538.84 300.075C538.776 357.778 517.763 413.504 479.692 456.935L483.258 460.494C522.306 416.098 543.888 359.072 544 300C543.981 267.736 537.551 235.797 525.082 206.03C512.612 176.262 494.351 149.259 471.354 126.581Z" fill="white"/>
<path d="M114.889 140.474C76.3695 184.742 55.1098 241.371 55 300C55.1064 352.572 72.2245 403.704 103.806 445.782L107.712 441.884C77.1967 400.867 60.6759 351.16 60.5798 300.075C60.6253 242.873 81.2579 187.591 118.72 144.297L114.889 140.474Z" fill="white"/>
<path d="M129.584 467.653L125.794 471.435C148.504 494.388 175.55 512.62 205.366 525.076C235.182 537.531 267.177 543.964 299.5 544C358.272 543.947 415.059 522.768 459.462 484.342L455.69 480.578C412.354 517.979 357.003 538.61 299.71 538.716C268.051 538.699 236.71 532.409 207.506 520.21C178.302 508.011 151.816 490.147 129.584 467.653Z" fill="white"/>
<path fill-rule="evenodd" clip-rule="evenodd" d="M299.028 508.044H269.017L278.398 483.61L279.063 425.261L270.794 412.635H261.342L248.749 419.174L237.59 431.095L226.742 448.704L226.597 443.981L235.77 426.901L225.431 425.434L266.423 405.78L259.659 392.855L245.222 373.075H236.282L221.266 385.684L210.319 409.144L210.126 402.163L203.203 411.3L195.321 436.256L187.815 440.264L199.086 417.537L197.337 412.301L183.681 423.021L187.231 417.289H184.317L174.131 422.705L180.126 415.449L195.537 412.564L205.027 402.163L210.438 391.692H196.179L174.131 411.285L179.96 404.723V400.88L166.796 407.674L161.134 414.482L151.691 412.017L170.057 403.811L173.24 398.673L167.135 398.196L181.126 394.203L215.663 384.984L222.899 377.762L218.435 373.694L195.452 366.094H185.527L151.553 389.98L157.557 380.387L168.904 375.228L165.986 372.316L180.583 363.457L176.463 359.568L154.147 352.132H145.195L133.536 340.496H135.193L160.14 352.086L169.248 352.132L150.813 332.485L177.366 356.802L188.122 360.839L220.767 356.711L231.895 354.212L218.699 340.466L173.364 317.227H151.978L153.144 311.919L127.94 303.022L97.5079 300.186L108.405 296.163L122.831 300.519L135.656 303.353V298.183L125.163 284.289L113.643 271.848L112.69 265.622L104.619 256.722H109.469L117.667 269.521L143.786 301.675L167.135 312.526L176.17 312.573L146.695 282.935L147.315 279.993L147.315 282.32H149.647V281.321L183.458 316.833L205.533 326.238L221.207 338.169H226.597V335.228L216.907 319.582L209.108 315.04L217.992 314.899L209.108 304.95L172.499 275.339L157.808 275.012L148.481 270.635L164.803 272.935L170.618 269.256L154.31 253.482V247.407L130.992 230.688V228.534L141.357 235.779L144.983 235.779V238.106H147.315V235.779L145.706 235.779L139.153 227.376L150.813 239.313L166.416 257.886L163.456 246.251L175.507 270.378L204.232 296.918L205.876 291.997L193.358 267.194L175.821 248.086L170.37 236.943L178.794 247.251L186.483 257.886L189.631 254.828L181.806 239.27L150.813 206.962L158.52 212.703L160.956 207.738L159.771 213.612L171.799 226.21L177.713 227.634L230.094 277.9L240.733 285.278L242.742 283.272L224.852 256.387L211.254 243.924L215.87 247.414H219.601V242.192L181.126 202.77L161.306 191.123V189.384L169.467 192.377L147.315 168.494V165.395L193.62 213.672L207.942 222.08L207.927 213.672L199.288 199.535L172.668 170.84L163.288 167.87L165.982 165.182L157.935 155.496L164.574 161.313H168.529L153.943 139.206L165.981 152.275L169.807 149.915L186.882 179.047L199.365 190.402L196.966 183.42L188.735 157.823L171.802 139.325L183.285 148.515L191.459 157.823L208.52 209.018L223.102 246.251L225.986 229.961L226.6 245.237L233.288 261.211L244.089 263.494L266.241 267.794V264.541L249.12 243.924L228.003 221.879L224.519 227.504L222.573 220.653L217.123 197.92L219.161 195.886L222.198 209.018L251.881 241.578L254.808 238.656L209.429 171.964L193.806 134.996L195.369 130.319L203.86 152.509L207.874 146.188L207.946 154.633L218.133 178.766L233.864 203.709L236.452 201.126L228.914 179.047L218.439 167.544L224.268 170.896V165.875L212.843 137.815L215.3 131.425L210.078 121.687L215.804 122.917L228.426 148.515L236.076 157.823L228.932 139.802L228.947 136.879L237.716 151.229L240.853 165.485L250.629 174.112L268.571 201.595V196.948L259.893 171.785L242.804 137.927L225.563 118.263L237.392 128.735H242.607L245.763 138.658L249.845 132.225L250.127 143.861L256.533 157.823L257.48 139.206L261.277 164.804L266.341 176.439L264.35 147.353L268.57 144.749V163.641H273.144L276.325 150.993L266.237 122.917L266.566 113.609L270.574 122.917L271.627 111.282L270.894 99.6466L277.672 114.772H280.599L277.952 99.6466L280.475 105.037L289.2 134.552L290.213 113.609L293.759 139.206L294.515 174.112L299.241 162.477L301.303 111.582L303.547 109.343V116.712L308.879 118.485L303.254 128.975L304.713 138.508L317.538 128.397L318.195 94.9925L321.386 120.59L317.775 134.552L313.004 174.112L309.866 187.603L315.206 184.309L315.146 185.747L305.879 215.25L306.256 330.025L314.624 312.117L320.196 276.503L330.363 225.307L330.011 97.3195L331.796 122.917L335.669 126.816L333.19 175.276H336.307L341.418 162.477L347.737 141.533L345.022 162.477L335.557 184.726L338.213 187.377L352.29 160.15L352.515 163.946L336.192 199.202V206.097L343.188 200.303V195.909L354.537 181.06L366.46 155.496L366.506 145.024H371.17V138.318L376.333 135.133L372.983 146.188L346.244 202.357L343.589 232.289L357.637 215.999L348.26 234.616L332.009 250.19L326.358 270.331L328.451 276.503L338.673 257.886L335.878 268.358H338.316L357.193 236.647L373.002 197.383L381.485 146.188L383.301 155.008L387.421 148.515L387.492 156.823L380.872 167.131L377.682 195.056L392.388 178.766L371.279 208.636L357.474 241.597L334.016 283.251L335.972 285.204L351.349 276.365L365.906 247.591L363.396 245.087H369.151L366.199 234.616L370.679 241.081L377.977 227.634L378.164 231.228L359.457 268.358H366.601L381.661 246.732L410.809 207.434L410.956 202.037L422.484 193.663L403.812 220.264L406 222.447L418.971 214.416L434.593 197.383L431.52 203.2H435.736L444.177 193.892H448.775L426.879 213.127L410.224 246.251L401.114 260.213L415.294 244.313L436.251 208.32L450.624 198.106L448.013 189.895L456.009 183.42L452.507 189.238H458.244L467.784 181.093L438.747 215.152L432.386 227.634L428.791 239.233L436.459 232.882V236.09L424.8 251.344V254.938L435.161 252.234L422.537 262.54L415.244 294.503L417.89 297.144L436.733 278.83L433.628 286.974H438.791L457.287 268.516L468.324 250.905L473.619 235.513L463.275 238.426L435.293 252.47L444.621 243.642L467.939 233.817L475.583 231.469L483.866 209.018L487.948 204.408L480.632 225.1L482.818 230.785L476.462 236.049L471.679 249.741H474.301L491.257 232.014L480.764 244.178V248.481L442.392 286.974H462.975L474.793 276.503L468.91 284.195L474.934 286.337L472.363 289.153L435.76 291.551L415.394 301.39L410.551 310.421L413.247 318.896L406.146 324.777V333.427L416.639 335.908L438.284 339.801L445.882 335.558L444.621 341.66L457.091 343.099L475.915 333.515L479.598 333.701L466.124 340.985L472.603 345.079L491.924 345.15L494.532 351.932L482.766 347.467L430.63 342.793L403.672 336.42L383.191 364.905L384.226 365.938L425.305 370.596L430.732 375.091L463.12 381.046L451.616 383.845L465.607 391.505L461.924 391.691L444.31 382.724L416.639 372.704L376.998 370.483L370.61 374.858L386.325 396.621L396.432 409.144L424.349 408.125L429.305 414.084L401.482 412.075V417.357L415.857 426.081L409.742 428.115L418.178 440.963L416.319 442.817L388.926 405.653H385.159L385.185 409.144L390.258 427.377L402.08 446.377L388.333 433.513L384.411 437.069L387.766 431.251L383.993 431.216L382.798 403.111L376.074 387.051L364.085 381.6L349.755 395.185L340.036 408.686L352.216 419.141L349.926 421.426L372.334 439.166L376.997 443.46L365.338 437.51L349.421 425.469L351.914 437.072L355.103 446.38L338.053 412.11L331.084 419.064L321.728 446.38L319.257 491.503L329.038 508.047H299.032L299.028 508.044ZM322.215 413.799L325.054 403.266L319.298 396.346H312.874L312.978 425.434L322.215 413.799ZM275.997 388.9L273.022 373.075H256.91V375.679L274.399 396.608L275.997 388.9ZM328.691 394.019L331.756 381.834L329.945 380.028L321.745 389.071L324.808 394.019H328.691ZM367.672 367.627L390.175 346.314L394.755 337.976L362.066 354.405L346.012 368.471L342.966 381.22L340.178 390.508L367.672 367.627ZM315.864 382.383L338.582 365.094L343.162 348.641L343.187 332.901L352.749 317.461L368.222 307.918H382.448L391.59 292.792L397.284 275.027L394.633 272.382L382.982 280L332.154 336.434L317.587 360.42L313.476 382.383H315.864ZM237.981 370.748L241.114 365.689L236.302 360.886L216.889 361.154L202.113 364.584L220.767 370.391L237.981 370.748ZM270.901 368.421L270.856 362.603L255.419 343.229L241.753 331.88L231.567 326.534H228.928V331.614L251.031 368.421H270.901ZM282.86 349.506L268.602 319.101L253.915 300.594L228.024 281.507L191.538 246.72L189.23 249.024L208.627 292.792L224.312 317.39L231.462 320.128L234.155 317.44L212.145 286.659L214.476 284.332L236.844 316.062L267.446 348.641L281.394 366.963L282.86 349.506ZM351.349 356.686L383.713 335.765L401.137 330.555L404.042 319.004L402.529 317.494L380.652 316.364L370.004 325.205L347.851 346.139V356.786L351.349 356.686ZM321.76 338.169L345.513 306.193L352.515 286.389V279.602L333.72 294.457L327.437 306.754L320.331 338.169H321.76ZM286.983 332.205L282.261 297.446L274.399 281.457L262.586 272.857L238.638 266.553L278.736 323.044L286.058 333.06L286.983 332.205ZM373.501 316.835V314.899H367.059L353.777 332.352L373.501 316.835ZM404.981 313.735L414.778 283.265L418.016 266.035L406.125 271.442L385.16 310.77V312.231L393.322 314.456L404.981 313.735ZM361.753 294.984L393.925 266.238L409.428 239.27L419.923 217.163H417.48L396.601 231.499L371.119 269.711L357.179 277.929V284.065L354.138 299.237L361.753 294.984ZM301.546 287.029L299.518 276.503L299.424 295.119L301.546 287.029ZM289.287 269.521L289.556 254.825L262.74 202.037L237.09 186.755L235.59 193.851L252.749 225.307L285.926 288.138L289.287 269.521ZM301.877 265.667L303.969 260.213L300.931 221.323L292.341 195.056L276.099 158.763L270.901 173.643V193.649L286.042 234.616L288.568 213.672L294.194 232.289L294.224 247.059L299.789 271.12L301.881 265.667H301.877ZM401.208 268.358L404.09 263.704H401.758L398.876 268.358H401.208ZM305.208 199.71L308.439 163.262L305.177 141.55L301.543 150.842L301.215 168.561L296.178 188.522L301.776 209.018L305.208 199.71ZM257.186 193.892L253.755 188.075L234.275 162.477L219.69 139.206L219.602 149.545L231.004 175.276H233.446L230.762 168.295H233.498L242.945 186.776L255.745 193.706L257.186 193.892ZM235.924 179.93V177.603H233.592V179.93H235.924ZM289.872 146.188L281.845 119.502L273.233 111.724L273.297 132.225L276.212 143.09L280.157 136.879L280.229 155.34L288.39 176.439L289.872 146.188ZM315.41 137.471L312.796 134.863L307.725 139.924L311.375 160.15L315.41 137.471Z" fill="white"/>
<path d="M149.647 281.321L149.49 281.156L149.647 279.993L149.647 281.321Z" fill="white"/>
<path d="M359.511 459.176V456.849H361.842V459.176H359.511Z" fill="white"/>
<path d="M221.658 454.522L224.54 449.868H226.872L223.99 454.522H221.658Z" fill="white"/>
<path d="M357.454 454.522L354.38 449.558L356.602 447.34L359.364 454.522H357.454Z" fill="white"/>
<path d="M177.628 449.868V447.541H179.96V449.868H177.628Z" fill="white"/>
<path d="M189.012 447.541L191.895 442.887H194.226L191.344 447.541H189.012Z" fill="white"/>
<path d="M211.829 442.887L214.938 439.784L218.047 442.887H211.829Z" fill="white"/>
<path d="M218.435 440.192L224.556 437.748L227.374 440.56L218.435 440.192Z" fill="white"/>
<path d="M427.408 435.906L424.081 430.532L429.465 433.853V435.906H427.408Z" fill="white"/>
<path d="M417.806 428.924V426.597H420.138V428.924H417.806Z" fill="white"/>
<path d="M170.633 424.27V421.943H172.965V424.27H170.633Z" fill="white"/>
<path d="M147.315 414.962V412.635H149.647V414.962H147.315Z" fill="white"/>
<path d="M472.604 396.274L465.608 391.763L470.272 392.019L479.599 396.018L472.604 396.274Z" fill="white"/>
<path d="M445.788 394.019V391.692H448.12V394.019H445.788Z" fill="white"/>
<path d="M441.124 391.692V389.365H443.456V391.692H441.124Z" fill="white"/>
<path d="M497.088 389.365V387.037H499.42V389.365H497.088Z" fill="white"/>
<path d="M137.988 387.037V384.71H140.319V387.037H137.988Z" fill="white"/>
<path d="M486.983 387.037L490.092 383.935L493.201 387.037H486.983Z" fill="white"/>
<path d="M143.817 384.343L149.938 381.899L152.756 384.711L143.817 384.343Z" fill="white"/>
<path d="M477.656 384.711L480.765 381.608L483.874 384.711H477.656Z" fill="white"/>
<path d="M148.481 372.535L156.642 370.407L164.803 372.535H148.481Z" fill="white"/>
<path d="M435.295 370.208L443.456 368.08L451.617 370.208H435.295Z" fill="white"/>
<path d="M113.503 351.668L125.163 347.942L133.599 347.478L130.717 352.132L113.503 351.668Z" fill="white"/>
<path d="M500.974 347.478L504.083 344.375L507.192 347.478H500.974Z" fill="white"/>
<path d="M110.006 342.824V340.496H112.337V342.824H110.006Z" fill="white"/>
<path d="M128.66 340.496V338.169H130.992V340.496H128.66Z" fill="white"/>
<path d="M123.997 338.169V335.842H126.328V338.169H123.997Z" fill="white"/>
<path d="M450.451 333.515V331.188H452.783V333.515H450.451Z" fill="white"/>
<path d="M484.263 333.148L490.092 330.8L495.922 333.148H484.263Z" fill="white"/>
<path d="M453.949 331.14L470.272 323.304L428.299 319.654L416.64 317.552L454.725 319.086L467.374 312.537L461.195 319.967L467.94 319.002L479.599 319.631L465.608 328.356L453.949 331.14Z" fill="white"/>
<path d="M498.642 331.188L501.751 328.086L504.861 331.188H498.642Z" fill="white"/>
<path d="M111.56 324.207L114.669 321.104L117.778 324.207H111.56Z" fill="white"/>
<path d="M120.888 321.88L122.831 320.196L150.813 317.669L141.485 321.553L120.888 321.88Z" fill="white"/>
<path d="M112.337 317.226V314.899H114.669V317.226H112.337Z" fill="white"/>
<path d="M97.1807 314.359L105.431 312.214L111.172 314.532L97.1807 314.359Z" fill="white"/>
<path d="M204.121 314.899L179.374 296.473L176.463 293.209L183.458 296.99L190.454 302.932L192.893 302.1L209.108 314.847L204.121 314.899Z" fill="white"/>
<path d="M481.931 314.531L487.761 312.184L493.59 314.531H481.931Z" fill="white"/>
<path d="M499.42 298.61V296.282H501.751V298.61H499.42Z" fill="white"/>
<path d="M100.678 296.282V293.955H103.01V296.282H100.678Z" fill="white"/>
<path d="M172.965 296.282V293.955H175.297V296.282H172.965Z" fill="white"/>
<path d="M486.595 293.628L477.267 289.628L490.092 289.301V293.955L486.595 293.628Z" fill="white"/>
<path d="M144.983 291.628V289.301H147.315V291.628H144.983Z" fill="white"/>
<path d="M119.333 289.301V286.974H121.665V289.301H119.333Z" fill="white"/>
<path d="M140.319 289.301V286.974H142.651V289.301H140.319Z" fill="white"/>
<path d="M113.503 286.903L106.508 282.391H111.172L118.167 286.903H113.503Z" fill="white"/>
<path d="M477.267 284.699L484.263 281.682L496.311 275.621V282.32L488.926 282.384L477.267 284.699Z" fill="white"/>
<path d="M499.42 279.993V277.666H501.751V279.993H499.42Z" fill="white"/>
<path d="M107.674 270.685V268.358H110.006V270.685H107.674Z" fill="white"/>
<path d="M141.874 270.685L144.983 267.582L148.092 270.685H141.874Z" fill="white"/>
<path d="M103.01 268.358V266.031H105.342V268.358H103.01Z" fill="white"/>
<path d="M137.988 268.358V266.031H140.319V268.358H137.988Z" fill="white"/>
<path d="M98.3466 266.031V263.704H100.678V266.031H98.3466Z" fill="white"/>
<path d="M132.158 265.96L125.163 261.448H129.826L136.822 265.96L132.158 265.96Z" fill="white"/>
<path d="M121.665 261.377V259.05H123.997V261.377H121.665Z" fill="white"/>
<path d="M114.669 259.05V256.723H117.001V259.05H114.669Z" fill="white"/>
<path d="M338.524 256.723V254.396H340.856V256.723H338.524Z" fill="white"/>
<path d="M146.149 251.997L139.153 247.486L143.817 247.741L153.144 251.741L146.149 251.997Z" fill="white"/>
<path d="M483.097 247.414V245.087H485.429V247.414H483.097Z" fill="white"/>
<path d="M133.324 245.087V242.76H135.656V245.087H133.324Z" fill="white"/>
<path d="M161.306 245.087V242.76H163.638V245.087H161.306Z" fill="white"/>
<path d="M487.761 245.087V242.76H490.092V245.087H487.761Z" fill="white"/>
<path d="M206.333 242.76L197.449 232.289L207.942 241.155V242.76H206.333Z" fill="white"/>
<path d="M492.149 242.76L495.078 238.03L499.42 240.708V242.76H492.149Z" fill="white"/>
<path d="M126.328 240.433V238.106H128.66V240.433H126.328Z" fill="white"/>
<path d="M159.55 240.634L156.642 233.071L156.784 229.961L161.733 238.455L159.55 240.634Z" fill="white"/>
<path d="M445.788 240.433V238.106H448.12V240.433H445.788Z" fill="white"/>
<path d="M168.576 235.779L165.249 230.406L170.633 233.727V235.779H168.576Z" fill="white"/>
<path d="M448.266 235.779L450.95 228.798H455.686L449.88 235.779H448.266Z" fill="white"/>
<path d="M368.838 234.228V228.022L371.947 231.125L368.838 234.228Z" fill="white"/>
<path d="M184.624 231.125V228.798H186.956V231.125H184.624Z" fill="white"/>
<path d="M126.328 228.798V226.471H128.66V228.798H126.328Z" fill="white"/>
<path d="M154.31 228.798V226.471H156.642V228.798H154.31Z" fill="white"/>
<path d="M371.17 227.247V221.041L374.279 224.144L371.17 227.247Z" fill="white"/>
<path d="M378.165 226.471V224.144H380.497V226.471H378.165Z" fill="white"/>
<path d="M452.783 226.471V222.36L462.377 219.856L456.876 226.471H452.783Z" fill="white"/>
<path d="M175.572 224.144L172.244 218.771L177.628 222.091V224.144H175.572Z" fill="white"/>
<path d="M182.868 224.345L179.96 216.782L180.102 213.672L185.052 222.166L182.868 224.345Z" fill="white"/>
<path d="M380.333 221.817L385.325 212.509H387.656L382.665 221.817H380.333Z" fill="white"/>
<path d="M131.563 219.49L125.163 211.345L133.324 217.733V219.49H131.563Z" fill="white"/>
<path d="M373.501 217.163V214.836H375.833V217.163H373.501Z" fill="white"/>
<path d="M455.115 217.163V214.836H457.447V217.163H455.115Z" fill="white"/>
<path d="M177.628 212.509V210.182H179.96V212.509H177.628Z" fill="white"/>
<path d="M387.294 211.345L398.74 187.876L406.627 160.801L403.885 147.12L408.08 149.707L410.678 143.861L408.562 167.131L421.189 140.37H424.88L413.064 163.641H417.417L426.985 150.842L427.133 154.436L407.955 175.199L394.994 202.037L387.294 211.345Z" fill="white"/>
<path d="M147.315 207.854V205.527H149.647V207.854H147.315Z" fill="white"/>
<path d="M156.642 206.303V200.098L159.751 203.2L156.642 206.303Z" fill="white"/>
<path d="M413.142 196.219V193.892H415.474V196.219H413.142Z" fill="white"/>
<path d="M421.403 192.729L429.734 182.757L432.963 171.12L438.44 177.03L421.403 192.729Z" fill="white"/>
<path d="M157.213 189.238L150.813 181.093L158.974 187.481V189.238H157.213Z" fill="white"/>
<path d="M415.474 189.238V186.911H417.806V189.238H415.474Z" fill="white"/>
<path d="M417.806 185.36V179.154L420.915 182.257L417.806 185.36Z" fill="white"/>
<path d="M391.881 177.603L394.763 172.949H397.095L394.213 177.603H391.881Z" fill="white"/>
<path d="M420.138 178.378V172.173L423.247 175.276L420.138 178.378Z" fill="white"/>
<path d="M445.513 170.622L448.395 165.968H450.727L447.844 170.622H445.513Z" fill="white"/>
<path d="M352.515 156.659V154.332H354.847V156.659H352.515Z" fill="white"/>
<path d="M426.858 149.678L429.74 145.024H432.072L429.19 149.678H426.858Z" fill="white"/>
<path d="M165.969 147.351V145.024H168.301V147.351H165.969Z" fill="white"/>
<path d="M186.956 148.127V141.921L190.065 145.024L186.956 148.127Z" fill="white"/>
<path d="M387.492 147.351V145.024H389.824V147.351H387.492Z" fill="white"/>
<path d="M382.829 145.8L383.197 136.879L385.646 142.988L382.829 145.8Z" fill="white"/>
<path d="M161.306 140.37V138.043H163.638V140.37H161.306Z" fill="white"/>
<path d="M203.279 140.37V138.043H205.61V140.37H203.279Z" fill="white"/>
<path d="M347.851 141.146V117.099H352.801L349.586 139.206L347.851 141.146Z" fill="white"/>
<path d="M364.718 140.37L362.468 128.624L366.506 126.133V140.37H364.718Z" fill="white"/>
<path d="M410.811 138.043V135.716H413.142V138.043H410.811Z" fill="white"/>
<path d="M427.133 138.043V135.716H429.465V138.043H427.133Z" fill="white"/>
<path d="M188.122 135.645L181.126 131.133L189.012 131.062L191.895 135.716L188.122 135.645Z" fill="white"/>
<path d="M226.597 136.492V130.286L229.706 133.389L226.597 136.492Z" fill="white"/>
<path d="M255.108 135.716L252.789 120.59L256.769 113.609L256.911 135.716H255.108Z" fill="white"/>
<path d="M200.947 133.389V131.062H203.279V133.389H200.947Z" fill="white"/>
<path d="M210.274 133.389V131.062H212.606V133.389H210.274Z" fill="white"/>
<path d="M385.16 133.389V131.062H387.492V133.389H385.16Z" fill="white"/>
<path d="M392.156 133.389V131.062H394.488V133.389H392.156Z" fill="white"/>
<path d="M191.619 128.735V126.408H193.951V128.735H191.619Z" fill="white"/>
<path d="M207.942 128.735V126.408H210.274V128.735H207.942Z" fill="white"/>
<path d="M224.841 128.935L221.933 121.373L222.075 118.263L227.025 126.757L224.841 128.935Z" fill="white"/>
<path d="M198.615 126.408V124.081H200.947V126.408H198.615Z" fill="white"/>
<path d="M205.61 124.081V121.754H207.942V124.081H205.61Z" fill="white"/>
<path d="M238.256 124.081V121.754H240.588V124.081H238.256Z" fill="white"/>
<path d="M245.251 124.856V118.651L248.36 121.754L245.251 124.856Z" fill="white"/>
<path d="M336.733 125.244V108.955L338.866 117.099L336.733 125.244Z" fill="white"/>
<path d="M207.942 119.427V117.099H210.274V119.427H207.942Z" fill="white"/>
<path d="M236.5 119.627L233.316 111.282L239.111 117.022L236.5 119.627Z" fill="white"/>
<path d="M219.601 117.099V114.772H221.933V117.099H219.601Z" fill="white"/>
<path d="M249.915 117.099V114.772H252.247V117.099H249.915Z" fill="white"/>
<path d="M308.21 115.548V109.343L311.32 112.445L308.21 115.548Z" fill="white"/>
<path d="M245.485 112.576L240.806 103.85L244.799 99.6466L247.339 90.3384L244.976 111.282L249.844 104.301L249.915 109.844L245.485 112.576Z" fill="white"/>
<path d="M252.247 112.445V110.118H254.579V112.445H252.247Z" fill="white"/>
<path d="M263.906 112.445V106.034L256.91 100.24V95.4439L266.238 106.176V112.445H263.906Z" fill="white"/>
<path d="M288.294 113.609L285.077 102.177L287.224 100.034L289.933 102.738L288.294 113.609Z" fill="white"/>
<path d="M233.592 110.118V107.791H235.924V110.118H233.592Z" fill="white"/>
<path d="M352.515 110.118V107.791H354.847V110.118H352.515Z" fill="white"/>
<path d="M226.597 107.791V105.464H228.929V107.791H226.597Z" fill="white"/>
<path d="M296.551 108.567L296.919 99.6466L299.369 105.755L296.551 108.567Z" fill="white"/>
<path d="M238.256 99.2587V93.0533L241.365 96.156L238.256 99.2587Z" fill="white"/>
<path d="M282.56 98.483V96.156H284.892V98.483H282.56Z" fill="white"/>
<path d="M268.569 96.156V93.8289H270.901V96.156H268.569Z" fill="white"/>
<path d="M275.565 96.9317V90.7262L278.674 93.8289L275.565 96.9317Z" fill="white"/>
<path d="M254.579 93.8289V91.5019H256.91V93.8289H254.579Z" fill="white"/>
<path d="M280.229 91.5019V89.1748H282.56V91.5019H280.229Z" fill="white"/>
<path d="M266.238 89.1748V86.8478H268.569V89.1748H266.238Z" fill="white"/>
</svg>
