<svg width="600" height="600" viewBox="0 0 600 600" fill="none" xmlns="http://www.w3.org/2000/svg">
<path d="M541.88 467.578C533.144 487.957 522.355 507.393 509.681 525.585C492.75 549.763 478.924 566.503 468.205 575.804C451.644 591.058 433.873 598.897 414.894 599.322C401.26 599.322 384.811 595.428 365.661 587.537C346.51 579.647 328.788 575.804 312.647 575.804C295.716 575.804 277.544 579.715 258.133 587.537C238.685 595.428 223.017 599.537 211.027 599.948C192.815 600.729 174.664 592.681 156.575 575.804C145 565.681 130.538 548.346 113.188 523.798C94.5582 497.578 79.25 467.157 67.2637 432.534C54.4212 395.068 48 358.791 48 323.702C48 283.49 56.6815 248.839 74.0445 219.75C87.1669 196.939 105.954 177.9 128.589 164.476C150.883 151.108 176.332 143.913 202.325 143.63C216.801 143.63 235.777 148.109 259.366 156.925C282.955 165.74 297.986 170.281 304.572 170.281C309.524 170.281 326.301 165.031 354.74 154.582C381.637 144.883 404.366 140.839 422.928 142.449C473.311 146.558 511.116 166.5 536.342 202.274C491.28 229.63 468.976 267.904 469.428 317.096C469.839 355.376 483.678 387.188 510.945 412.531C523.001 424.058 537.069 433.276 552.452 439.726C549.123 449.424 545.599 458.709 541.88 467.578ZM426.318 12C426.318 42.0137 415.4 70 393.565 95.9588C367.243 126.781 335.414 144.606 300.883 141.791C300.423 138.017 300.193 134.219 300.195 130.418C300.195 101.651 312.709 70.8287 334.942 45.5753C346.037 32.815 360.144 22.1986 377.26 13.726C394.349 5.40411 410.493 0.828767 425.692 0C426.12 3.98552 426.329 7.99154 426.318 12Z" fill="#B3B3B3"/>
</svg>
