<svg width="600" height="600" viewBox="0 0 600 600" fill="none" xmlns="http://www.w3.org/2000/svg">
<g clip-path="url(#clip0_8251_2)">
<path d="M547.991 279.316C547.991 441.956 353.53 569.24 311.103 597.525C307.567 601.061 300.496 601.061 293.424 597.525C250.996 572.776 53 441.956 53 279.316V84.8556C53 77.7843 60.0713 70.713 67.1426 70.713C219.176 67.1774 187.355 0 300.496 0C413.636 0 378.28 67.1774 530.313 70.713C537.384 70.713 544.456 77.7843 544.456 84.8556L547.991 279.316Z" fill="#1B93EB"/>
<path d="M526.778 279.316C526.778 427.814 346.46 548.026 307.568 569.24C304.032 572.775 296.961 572.775 293.425 569.24C254.533 544.49 74.2148 424.278 74.2148 279.316V102.534C74.2148 95.4626 77.7505 88.3912 84.8218 84.8556C222.712 81.3199 190.891 21.2139 296.961 21.2139C403.03 21.2139 371.209 84.8556 509.1 84.8556C516.171 84.8556 523.243 91.9269 523.243 98.9982L526.778 279.316Z" fill="url(#paint0_linear_8251_2)"/>
<path d="M300.495 212.139C349.994 212.139 392.422 251.031 399.493 300.53C399.493 307.601 410.1 314.673 417.172 314.673H466.671C477.278 314.673 484.349 307.601 484.349 296.994V293.459C473.742 190.925 381.815 116.676 279.281 127.283C190.89 137.89 123.712 205.067 113.105 293.459C113.105 304.066 120.177 311.137 127.248 311.137H180.283C187.354 311.137 194.425 304.066 197.961 296.994C208.568 247.495 250.996 212.139 300.495 212.139Z" fill="#C3F1FF"/>
<path d="M300.496 378.315C337.597 378.315 367.673 348.238 367.673 311.137C367.673 274.036 337.597 243.96 300.496 243.96C263.395 243.96 233.318 274.036 233.318 311.137C233.318 348.238 263.395 378.315 300.496 378.315Z" fill="white"/>
</g>
<defs>
<linearGradient id="paint0_linear_8251_2" x1="300.497" y1="552.622" x2="300.497" y2="2.12134" gradientUnits="userSpaceOnUse">
<stop stop-color="#1B93EB"/>
<stop offset="0.21" stop-color="#2095EB"/>
<stop offset="0.44" stop-color="#2E9CED"/>
<stop offset="0.69" stop-color="#45A7EF"/>
<stop offset="0.95" stop-color="#64B6F1"/>
<stop offset="1" stop-color="#6BB9F2"/>
</linearGradient>
<clipPath id="clip0_8251_2">
<rect width="494.991" height="600" fill="white" transform="translate(53)"/>
</clipPath>
</defs>
</svg>
