<svg width="600" height="589" viewBox="0 0 600 589" fill="none" xmlns="http://www.w3.org/2000/svg">
<g clip-path="url(#clip0_8112_7739)">
<path d="M274.7 260.298C232.696 248.885 194.285 226.935 163.091 196.519C131.746 227.058 93.1307 249.055 50.9138 260.421C48.7682 271.693 47.6912 283.143 47.6953 294.619C47.843 330.628 58.648 365.782 78.7425 395.632C98.837 425.482 127.317 448.684 160.576 462.299C194.936 449.329 224.54 426.178 245.451 395.929C266.361 365.679 277.587 329.766 277.633 292.965C277.637 282.01 276.655 271.076 274.7 260.298ZM154.626 394.138L85.8175 325.171L106.968 303.911L154.656 351.71L229.241 276.933L250.422 298.162L154.626 394.138ZM274.7 260.298C232.696 248.885 194.285 226.935 163.091 196.519C131.746 227.058 93.1307 249.055 50.9138 260.421C48.7682 271.693 47.6912 283.143 47.6953 294.619C47.843 330.628 58.648 365.782 78.7425 395.632C98.837 425.482 127.317 448.684 160.576 462.299C194.936 449.329 224.54 426.178 245.451 395.929C266.361 365.679 277.587 329.766 277.633 292.965C277.637 282.01 276.655 271.076 274.7 260.298ZM154.626 394.138L85.8175 325.171L106.968 303.911L154.656 351.71L229.241 276.933L250.422 298.162L154.626 394.138ZM163.091 196.519C131.746 227.058 93.1307 249.055 50.9138 260.421C48.7682 271.693 47.6912 283.143 47.6953 294.619C47.843 330.628 58.648 365.782 78.7425 395.632C98.837 425.482 127.317 448.684 160.576 462.299C194.936 449.329 224.54 426.178 245.451 395.929C266.361 365.679 277.587 329.766 277.633 292.965C277.634 282.006 276.648 271.07 274.688 260.288C232.69 248.876 194.283 226.93 163.091 196.519ZM154.626 394.138L85.8175 325.171L106.968 303.911L154.656 351.71L229.241 276.933L250.422 298.162L154.626 394.138ZM274.7 260.298C232.696 248.885 194.285 226.935 163.091 196.519C131.746 227.058 93.1307 249.055 50.9138 260.421C48.7682 271.693 47.6912 283.143 47.6953 294.619C47.843 330.628 58.648 365.782 78.7425 395.632C98.837 425.482 127.317 448.684 160.576 462.299C194.936 449.329 224.54 426.178 245.451 395.929C266.361 365.679 277.587 329.766 277.633 292.965C277.637 282.01 276.655 271.076 274.7 260.298ZM154.626 394.138L85.8175 325.171L106.968 303.911L154.656 351.71L229.241 276.933L250.422 298.162L154.626 394.138ZM274.7 260.298C232.696 248.885 194.285 226.935 163.091 196.519C131.746 227.058 93.1307 249.055 50.9138 260.421C48.7682 271.693 47.6912 283.143 47.6953 294.619C47.843 330.628 58.648 365.782 78.7425 395.632C98.837 425.482 127.317 448.684 160.576 462.299C194.936 449.329 224.54 426.178 245.451 395.929C266.361 365.679 277.587 329.766 277.633 292.965C277.637 282.01 276.655 271.076 274.7 260.298ZM154.626 394.138L85.8175 325.171L106.968 303.911L154.656 351.71L229.241 276.933L250.422 298.162L154.626 394.138Z" fill="url(#paint0_linear_8112_7739)"/>
<path d="M593.214 93.6685C591.257 90.497 588.936 87.5669 586.297 84.938C585.493 84.1211 584.626 83.345 583.76 82.5995C576.123 75.9777 566.518 72.0688 556.437 71.4795H206.578C196.497 72.0688 186.892 75.9777 179.254 82.5995C178.365 83.319 177.528 84.1005 176.749 84.938C174.095 87.5312 171.771 90.4431 169.83 93.6074C165.336 100.935 162.962 109.37 162.974 117.971V136.25L157.178 142.244L156.159 143.265C118.095 182.768 69.9434 211.042 16.9523 225.007C15.6177 225.384 14.2625 225.722 12.877 226.028L6.97843 227.488L5.67511 233.421C5.21666 235.566 4.77853 237.74 4.35065 239.925C1.45409 255.129 -0.0024707 270.572 0.000438269 286.05C-0.0945199 336.133 15.2434 385.023 43.9191 426.037C69.5256 462.885 104.778 491.936 145.797 509.995C149.302 511.547 152.838 513.058 156.434 514.406L159.815 515.713L163.219 514.468C167.844 512.824 172.387 511.016 176.9 509.127C225.969 488.116 266.824 451.577 293.215 405.094H553.615C564.621 405.106 575.268 401.168 583.629 393.994C584.566 393.218 585.4 392.442 586.266 391.574C588.899 388.947 591.221 386.025 593.185 382.864C597.68 375.548 600.054 367.122 600.041 358.53V117.971C600.04 109.395 597.678 100.985 593.214 93.6685ZM206.945 93.6685C207.75 93.6072 208.565 93.5768 209.4 93.5768H553.615C554.45 93.5768 555.255 93.5766 556.06 93.6685H559.697L559.107 94.1995L388.736 245.327C386.748 247.085 384.188 248.054 381.538 248.054C378.887 248.054 376.327 247.085 374.34 245.327L203.97 94.1995L203.378 93.6685H206.945ZM185.143 117.941C185.13 114.788 185.743 111.664 186.946 108.75L333.008 238.332L322.586 247.523C322.056 243.922 321.435 240.348 320.722 236.801C320.539 235.647 320.325 234.534 320.07 233.38L318.807 227.386L312.877 225.926C311.451 225.548 310.024 225.211 308.598 224.833C262.723 212.55 220.412 189.529 185.143 157.663V117.941ZM160.06 494.841C118.672 477.876 83.2328 448.988 58.2271 411.832C33.2213 374.675 19.7728 330.92 19.5814 286.101C19.5967 271.821 20.9601 257.574 23.6555 243.551C76.2036 229.386 124.256 201.965 163.229 163.902C202.041 201.778 249.847 229.11 302.13 243.316C304.585 256.751 305.818 270.38 305.817 284.038C305.764 329.861 291.788 374.58 265.75 412.244C239.712 449.907 202.846 478.729 160.06 494.872V494.841ZM304.412 382.956C318.201 351.839 325.322 318.168 325.317 284.12C325.317 281.057 325.255 278.055 325.133 275.012L349.716 253.19L374.34 275.012C376.327 276.769 378.887 277.739 381.538 277.739C384.188 277.739 386.748 276.769 388.736 275.012L413.35 253.19L559.035 382.333L559.717 382.956H304.412ZM577.862 358.622C577.875 361.774 577.266 364.898 576.069 367.813L430.098 238.383L576.1 108.894C577.271 111.787 577.87 114.88 577.862 118.002V358.622Z" fill="url(#paint1_linear_8112_7739)"/>
</g>
<defs>
<linearGradient id="paint0_linear_8112_7739" x1="47.6953" y1="329.409" x2="277.633" y2="329.409" gradientUnits="userSpaceOnUse">
<stop stop-color="#E3156A"/>
<stop offset="1" stop-color="#91187F"/>
</linearGradient>
<linearGradient id="paint1_linear_8112_7739" x1="0" y1="293.596" x2="600.041" y2="293.596" gradientUnits="userSpaceOnUse">
<stop stop-color="#E3156A"/>
<stop offset="1" stop-color="#91187F"/>
</linearGradient>
<clipPath id="clip0_8112_7739">
<rect width="600" height="589" fill="white"/>
</clipPath>
</defs>
</svg>
