<svg width="600" height="600" viewBox="0 0 600 600" fill="none" xmlns="http://www.w3.org/2000/svg">
<g clip-path="url(#clip0_8112_4795)">
<path d="M96.9577 396.5H0.195312V304.576H193.599C191.078 355.769 148.775 396.5 96.9577 396.5Z" fill="#7BCD54"/>
<path d="M96.9575 202.977H0.195312V294.9H193.599C191.078 243.708 148.775 202.977 96.9575 202.977Z" fill="#63C43F"/>
<path d="M503.356 202.977C451.539 202.977 409.235 243.708 406.715 294.9H599.997C597.477 243.708 555.174 202.977 503.356 202.977Z" fill="#63C43F"/>
<path d="M503.356 396.5C451.539 396.5 409.235 355.769 406.715 304.576H599.997C597.477 355.769 555.174 396.5 503.356 396.5Z" fill="#7BCD54"/>
<path d="M203.395 202.977V299.739C203.395 351.556 244.126 393.859 295.319 396.38V202.977H203.395Z" fill="#63C43F"/>
<path d="M396.922 396.501H304.996V202.977H396.922V299.739V396.501Z" fill="#7BCD54"/>
</g>
<defs>
<clipPath id="clip0_8112_4795">
<rect width="600" height="193.5" fill="white" transform="translate(0 203)"/>
</clipPath>
</defs>
</svg>
