<svg width="600" height="600" viewBox="0 0 600 600" fill="none" xmlns="http://www.w3.org/2000/svg">
<path d="M98.3758 279.366V287.146C98.3758 296.392 97.2277 304.679 94.9314 312.008C92.6351 319.338 89.3307 325.567 85.0182 330.698C80.7057 335.828 75.5251 339.746 69.4763 342.452C63.4836 345.159 56.7628 346.512 49.3139 346.512C42.0891 346.512 35.4523 345.159 29.4035 342.452C23.4108 339.746 18.2022 335.828 13.7777 330.698C9.40913 325.567 6.02072 319.338 3.61243 312.008C1.20414 304.679 0 296.392 0 287.146V279.366C0 270.12 1.17614 261.86 3.52842 254.588C5.93671 247.259 9.32512 241.029 13.6936 235.899C18.0622 230.712 23.2428 226.765 29.2355 224.059C35.2842 221.353 41.921 220 49.1459 220C56.5948 220 63.3156 221.353 69.3083 224.059C75.357 226.765 80.5377 230.712 84.8502 235.899C89.2187 241.029 92.5511 247.259 94.8474 254.588C97.1997 261.86 98.3758 270.12 98.3758 279.366ZM82.3299 287.146V279.197C82.3299 271.868 81.5738 265.384 80.0616 259.746C78.6054 254.109 76.4492 249.373 73.5928 245.539C70.7365 241.705 67.2361 238.802 63.0916 236.829C59.0031 234.856 54.3545 233.869 49.1459 233.869C44.1053 233.869 39.5407 234.856 35.4523 236.829C31.4198 238.802 27.9474 241.705 25.035 245.539C22.1787 249.373 19.9664 254.109 18.3982 259.746C16.83 265.384 16.0459 271.868 16.0459 279.197V287.146C16.0459 294.531 16.83 301.071 18.3982 306.765C19.9664 312.403 22.2067 317.167 25.119 321.057C28.0874 324.891 31.5878 327.794 35.6203 329.767C39.7088 331.741 44.2733 332.727 49.3139 332.727C54.5786 332.727 59.2551 331.741 63.3436 329.767C67.4321 327.794 70.8765 324.891 73.6768 321.057C76.5332 317.167 78.6894 312.403 80.1456 306.765C81.6018 301.071 82.3299 294.531 82.3299 287.146Z" fill="black"/>
<path d="M135.844 270.909V380H120.218V253.319H134.5L135.844 270.909ZM197.088 298.309V300.085C197.088 306.737 196.304 312.91 194.735 318.605C193.167 324.242 190.871 329.147 187.847 333.319C184.878 337.491 181.21 340.733 176.841 343.044C172.473 345.356 167.46 346.512 161.803 346.512C156.035 346.512 150.938 345.553 146.514 343.636C142.089 341.72 138.337 338.929 135.256 335.264C132.176 331.6 129.712 327.202 127.863 322.072C126.071 316.942 124.839 311.163 124.167 304.736V295.264C124.839 288.499 126.099 282.438 127.947 277.082C129.796 271.727 132.232 267.16 135.256 263.383C138.337 259.549 142.061 256.646 146.43 254.672C150.798 252.643 155.839 251.628 161.551 251.628C167.264 251.628 172.333 252.755 176.757 255.011C181.182 257.209 184.906 260.366 187.931 264.482C190.955 268.598 193.223 273.531 194.735 279.281C196.304 284.975 197.088 291.318 197.088 298.309ZM181.462 300.085V298.309C181.462 293.742 180.986 289.457 180.034 285.455C179.081 281.395 177.597 277.844 175.581 274.799C173.621 271.698 171.101 269.274 168.02 267.526C164.94 265.722 161.271 264.82 157.015 264.82C153.094 264.82 149.678 265.497 146.766 266.85C143.909 268.203 141.473 270.035 139.457 272.347C137.44 274.602 135.788 277.195 134.5 280.127C133.268 283.002 132.344 285.99 131.728 289.091V310.994C132.848 314.94 134.416 318.661 136.432 322.156C138.449 325.595 141.137 328.386 144.497 330.529C147.858 332.615 152.086 333.658 157.183 333.658C161.383 333.658 164.996 332.784 168.02 331.036C171.101 329.232 173.621 326.779 175.581 323.679C177.597 320.578 179.081 317.026 180.034 313.023C180.986 308.964 181.462 304.651 181.462 300.085Z" fill="black"/>
<path d="M254.635 346.512C248.306 346.512 242.565 345.44 237.412 343.298C232.316 341.099 227.919 338.027 224.223 334.08C220.582 330.134 217.782 325.455 215.822 320.042C213.862 314.63 212.882 308.71 212.882 302.283V298.731C212.882 291.29 213.974 284.665 216.158 278.858C218.342 272.995 221.311 268.034 225.063 263.975C228.815 259.915 233.072 256.843 237.833 254.757C242.593 252.671 247.522 251.628 252.618 251.628C259.115 251.628 264.716 252.755 269.42 255.011C274.181 257.266 278.073 260.423 281.098 264.482C284.122 268.485 286.362 273.221 287.819 278.689C289.275 284.101 290.003 290.021 290.003 296.448V303.467H222.123V290.698H274.461V289.514C274.237 285.455 273.397 281.508 271.941 277.674C270.54 273.841 268.3 270.684 265.22 268.203C262.139 265.722 257.939 264.482 252.618 264.482C249.09 264.482 245.842 265.243 242.873 266.765C239.905 268.231 237.356 270.43 235.228 273.362C233.1 276.293 231.448 279.873 230.272 284.101C229.095 288.33 228.507 293.206 228.507 298.731V302.283C228.507 306.624 229.095 310.712 230.272 314.545C231.504 318.323 233.268 321.649 235.564 324.524C237.917 327.4 240.745 329.655 244.049 331.29C247.41 332.925 251.218 333.742 255.475 333.742C260.963 333.742 265.612 332.615 269.42 330.359C273.229 328.104 276.561 325.088 279.418 321.311L288.827 328.837C286.866 331.825 284.374 334.672 281.35 337.378C278.325 340.085 274.601 342.283 270.176 343.975C265.808 345.666 260.627 346.512 254.635 346.512Z" fill="black"/>
<path d="M323.691 272.854V344.82H308.149V253.319H322.851L323.691 272.854ZM319.994 295.603L313.526 295.349C313.582 289.091 314.506 283.312 316.298 278.013C318.09 272.657 320.61 268.006 323.859 264.059C327.107 260.113 330.972 257.068 335.452 254.926C339.989 252.727 345.001 251.628 350.49 251.628C354.971 251.628 359.003 252.248 362.588 253.488C366.172 254.672 369.224 256.589 371.745 259.239C374.321 261.889 376.281 265.328 377.625 269.556C378.969 273.728 379.642 278.83 379.642 284.863V344.82H364.016V284.693C364.016 279.901 363.316 276.068 361.915 273.192C360.515 270.261 358.471 268.147 355.783 266.85C353.094 265.497 349.79 264.82 345.87 264.82C342.005 264.82 338.477 265.638 335.284 267.273C332.148 268.908 329.432 271.163 327.135 274.038C324.895 276.913 323.131 280.211 321.843 283.932C320.61 287.597 319.994 291.487 319.994 295.603Z" fill="black"/>
<path d="M438.701 344.82H413.162L413.33 331.543H438.701C447.438 331.543 454.719 329.711 460.543 326.047C466.368 322.326 470.737 317.139 473.649 310.486C476.617 303.777 478.101 295.941 478.101 286.977V279.45C478.101 272.403 477.261 266.145 475.581 260.677C473.901 255.152 471.437 250.5 468.188 246.723C464.94 242.889 460.963 239.986 456.259 238.013C451.61 236.039 446.262 235.053 440.213 235.053H412.658V221.691H440.213C448.222 221.691 455.531 223.044 462.139 225.751C468.748 228.4 474.433 232.262 479.194 237.336C484.01 242.354 487.707 248.443 490.283 255.603C492.859 262.706 494.147 270.712 494.147 279.619V286.977C494.147 295.884 492.859 303.918 490.283 311.078C487.707 318.182 483.982 324.242 479.11 329.26C474.293 334.278 468.468 338.14 461.635 340.846C454.859 343.495 447.214 344.82 438.701 344.82ZM421.815 221.691V344.82H405.601V221.691H421.815Z" fill="black"/>
<path d="M583.702 313.7C583.702 310.825 583.254 308.288 582.358 306.089C581.518 303.834 580.006 301.804 577.821 300C575.693 298.196 572.725 296.476 568.916 294.841C565.164 293.206 560.403 291.543 554.635 289.852C548.586 288.048 543.125 286.047 538.253 283.848C533.38 281.593 529.208 279.027 525.735 276.152C522.263 273.277 519.602 269.979 517.754 266.258C515.906 262.537 514.982 258.28 514.982 253.488C514.982 248.696 515.962 244.271 517.922 240.211C519.882 236.152 522.683 232.629 526.323 229.641C530.02 226.596 534.416 224.228 539.513 222.537C544.609 220.846 550.294 220 556.567 220C565.752 220 573.537 221.776 579.922 225.328C586.362 228.823 591.263 233.418 594.623 239.112C597.984 244.75 599.664 250.782 599.664 257.209H583.534C583.534 252.586 582.554 248.499 580.594 244.947C578.633 241.339 575.665 238.52 571.689 236.49C567.712 234.405 562.672 233.362 556.567 233.362C550.798 233.362 546.038 234.235 542.285 235.983C538.533 237.731 535.732 240.099 533.884 243.087C532.092 246.075 531.196 249.486 531.196 253.319C531.196 255.913 531.728 258.28 532.792 260.423C533.912 262.509 535.62 264.454 537.917 266.258C540.269 268.062 543.237 269.725 546.822 271.247C550.462 272.77 554.803 274.235 559.843 275.645C566.788 277.618 572.781 279.817 577.821 282.241C582.862 284.665 587.006 287.4 590.255 290.444C593.559 293.432 595.996 296.843 597.564 300.677C599.188 304.454 600 308.739 600 313.531C600 318.548 598.992 323.087 596.976 327.146C594.959 331.205 592.075 334.672 588.323 337.548C584.57 340.423 580.062 342.65 574.797 344.228C569.588 345.751 563.764 346.512 557.323 346.512C551.666 346.512 546.094 345.722 540.605 344.144C535.172 342.565 530.216 340.197 525.735 337.04C521.311 333.883 517.754 329.993 515.066 325.37C512.434 320.691 511.117 315.278 511.117 309.133H527.247C527.247 313.362 528.059 316.998 529.684 320.042C531.308 323.03 533.52 325.511 536.32 327.484C539.177 329.457 542.397 330.923 545.982 331.882C549.622 332.784 553.402 333.235 557.323 333.235C562.98 333.235 567.768 332.445 571.689 330.867C575.609 329.288 578.577 327.033 580.594 324.101C582.666 321.17 583.702 317.703 583.702 313.7Z" fill="black"/>
</svg>
