<svg width="600" height="600" viewBox="0 0 600 600" fill="none" xmlns="http://www.w3.org/2000/svg">
<g clip-path="url(#clip0_8112_7772)">
<path d="M157.633 395.898H432.873C438.376 395.898 442.896 391.38 442.896 385.88V205.85L157.633 395.996V395.898Z" fill="#30363F"/>
<path d="M300.216 300.821L157.535 205.748V395.796C159.009 394.814 160.09 394.126 157.535 395.796L300.216 300.723V300.821Z" fill="#FEC111"/>
<path d="M550.59 135.621C550.59 135.621 550.098 134.934 549.902 134.541L497.428 169.506C497.428 169.506 497.92 170.193 498.116 170.586C522.781 208.007 537.226 252.695 537.226 300.919C537.226 431.743 431.099 537.816 300.21 537.816C218.454 537.816 146.327 496.467 103.779 433.412C103.582 433.02 103.287 432.725 103.091 432.332L50.6172 467.297C50.6172 467.297 51.1085 467.984 51.305 468.377C105.253 548.325 196.639 600.871 300.21 600.871C465.885 600.871 600.312 466.609 600.312 300.919C600.312 239.829 582.034 183.06 550.59 135.621Z" fill="#6CB2E2"/>
<path d="M63.3004 300.823C63.3004 169.999 169.427 63.9258 300.316 63.9258C382.563 63.9258 454.985 105.864 497.534 169.41L550.007 134.445C496.256 53.9078 404.477 0.871094 300.316 0.871094C134.641 0.871094 0.3125 135.132 0.3125 300.823C0.3125 362.404 18.8846 419.566 50.7224 467.201L103.196 432.236C78.0401 394.619 63.3986 349.44 63.3986 300.823" fill="#1668B3"/>
</g>
<defs>
<clipPath id="clip0_8112_7772">
<rect width="600" height="600" fill="white"/>
</clipPath>
</defs>
</svg>
