<svg width="600" height="600" viewBox="0 0 600 600" fill="none" xmlns="http://www.w3.org/2000/svg">
<g clip-path="url(#clip0_8349_411)">
<path d="M271.429 371.286V357H457.143V385.571L528.571 335.571L457.143 285.571V314.143H42.8571V99.8571H400V157H442.857V78.4286C442.857 66.5714 433.286 57 421.429 57H21.4286C9.57143 57 0 66.5714 0 78.4286V335.571C0 347.429 9.57143 357 21.4286 357H200V371.286C200 395 180.857 414.143 157.143 414.143H114.286V457H357.143V414.143H314.286C290.571 414.143 271.429 395 271.429 371.286Z" fill="#1976D2"/>
<path d="M578.572 185.571H280.715C272.715 168.714 255.572 157 235.715 157C208.143 157 185.715 179.429 185.715 207C185.715 234.571 208.143 257 235.715 257C255.572 257 272.715 245.286 280.715 228.429H557.143V471.286H428.572V385.571H385.715V521.286C385.715 533.143 395.286 542.714 407.143 542.714H578.572C590.429 542.714 600.001 533.143 600.001 521.286V207C600.001 195.143 590.429 185.571 578.572 185.571ZM471.429 514.143V499.857H514.286V514.143H471.429Z" fill="#1976D2"/>
</g>
<defs>
<clipPath id="clip0_8349_411">
<rect width="600" height="485.714" fill="white" transform="translate(0 57)"/>
</clipPath>
</defs>
</svg>
