<svg width="600" height="600" viewBox="0 0 600 600" fill="none" xmlns="http://www.w3.org/2000/svg">
<path d="M599 299.501C599 464.917 464.917 599 299.5 599C134.097 599 0 464.917 0 299.501C0 134.097 134.097 0 299.5 0C464.917 0 599 134.098 599 299.501Z" fill="#1A1918"/>
<path d="M304.541 183.246L381.897 374.664L265.052 282.386L304.541 183.246ZM441.963 418.759L322.973 131.661C319.576 123.381 312.784 119 304.541 119C296.282 119 288.996 123.381 285.599 131.661L155 446.571H199.676L251.374 316.732L405.655 441.695C411.86 446.725 416.337 449 422.157 449C433.812 449 444 440.24 444 427.595C444 425.537 443.275 422.272 441.963 418.759Z" fill="white"/>
</svg>
