<svg width="600" height="600" viewBox="0 0 600 600" fill="none" xmlns="http://www.w3.org/2000/svg">
<g clip-path="url(#clip0_8152_133)">
<path d="M600 299.995C600 465.694 465.689 600 299.993 600C134.306 600 0 465.694 0 299.995C0 134.309 134.306 0 299.993 0C465.689 0 600 134.309 600 299.995Z" fill="#EC1C24"/>
<path d="M274.274 236.461L346.206 308.367C356.589 318.764 373.448 318.764 383.856 308.367C394.241 297.972 394.265 281.128 383.856 270.731L311.92 198.797C260.448 147.314 177.259 146.484 124.696 196.181C124.205 196.589 123.732 197.017 123.278 197.465C123.048 197.695 122.861 197.939 122.634 198.145C122.399 198.37 122.16 198.572 121.937 198.797C121.483 199.249 121.068 199.725 120.672 200.196C70.9492 252.783 71.8047 335.974 123.28 387.454L195.215 459.375C205.621 469.765 222.456 469.765 232.86 459.375C243.271 448.976 243.271 432.11 232.886 421.734L160.949 349.802C129.548 318.412 129.337 267.468 160.298 235.809C191.952 204.848 242.868 205.071 274.274 236.461ZM367.115 140.665C356.72 151.064 356.72 167.906 367.143 178.303L439.052 250.24C470.434 281.627 470.638 332.564 439.68 364.23C408.016 395.168 357.116 394.961 325.72 363.569L253.785 291.642C243.384 281.243 226.52 281.243 216.13 291.642C205.717 302.032 205.717 318.928 216.13 329.294L288.041 401.233C339.529 452.714 422.709 453.55 475.281 403.849C475.769 403.418 476.228 403.017 476.711 402.562C476.931 402.34 477.137 402.112 477.351 401.883C477.585 401.66 477.813 401.454 478.03 401.205C478.492 400.776 478.886 400.305 479.296 399.813C529.019 347.247 528.187 264.084 476.713 212.573L404.779 140.662C394.382 130.249 377.502 130.249 367.115 140.665Z" fill="white"/>
</g>
<defs>
<clipPath id="clip0_8152_133">
<rect width="600" height="600" fill="white"/>
</clipPath>
</defs>
</svg>
