<svg width="600" height="600" viewBox="0 0 600 600" fill="none" xmlns="http://www.w3.org/2000/svg">
<path d="M297.92 0.0513008C292.616 0.318419 287.419 1.63314 282.634 3.91833L74.0445 103.554C68.6457 106.132 63.902 109.882 60.1657 114.527C56.4294 119.172 53.7965 124.592 52.4626 130.384L1.00213 354.192C-0.186165 359.348 -0.319153 364.689 0.611042 369.897C1.54124 375.106 3.51571 380.076 6.41761 384.514C7.12126 385.6 7.87802 386.65 8.68518 387.661L153.063 567.119C156.8 571.762 161.544 575.511 166.943 578.088C172.342 580.664 178.257 582.001 184.248 582L415.78 581.947C421.77 581.951 427.683 580.618 433.082 578.046C438.481 575.475 443.226 571.731 446.966 567.092L591.29 387.608C595.029 382.962 597.664 377.541 598.999 371.746C600.333 365.951 600.334 359.933 599 354.138L547.459 130.33C546.125 124.538 543.492 119.119 539.756 114.474C536.02 109.829 531.276 106.079 525.877 103.501L317.261 3.91833C311.242 1.04374 304.592 -0.28595 297.92 0.0513008Z" fill="#326CE5"/>
<path d="M299.987 76C293.09 76.0008 287.497 82.2157 287.498 89.882C287.498 89.9996 287.522 90.1121 287.525 90.229C287.515 91.2707 287.464 92.5256 287.498 93.4326C287.663 97.8543 288.626 101.238 289.206 105.312C290.257 114.032 291.137 121.259 290.594 127.977C290.065 130.51 288.2 132.827 286.537 134.438L286.244 139.723C278.749 140.345 271.204 141.482 263.668 143.194C231.24 150.56 203.32 167.27 182.064 189.832C180.684 188.891 178.271 187.159 177.554 186.628C175.324 186.93 173.07 187.618 170.135 185.908C164.546 182.144 159.456 176.949 153.297 170.691C150.474 167.697 148.431 164.847 145.077 161.961C144.316 161.306 143.154 160.42 142.302 159.745C139.681 157.655 136.589 156.564 133.603 156.462C129.763 156.33 126.068 157.832 123.649 160.867C119.349 166.262 120.726 174.508 126.718 179.287C126.779 179.335 126.843 179.373 126.905 179.42C127.728 180.088 128.736 180.944 129.493 181.503C133.051 184.131 136.302 185.476 139.847 187.563C147.316 192.177 153.509 196.004 158.42 200.617C160.338 202.662 160.673 206.266 160.929 207.825L164.931 211.402C143.503 243.663 133.586 283.511 139.447 324.113L134.216 325.635C132.838 327.415 130.89 330.218 128.853 331.054C122.427 333.079 115.195 333.822 106.463 334.738C102.364 335.079 98.8274 334.875 94.4817 335.699C93.5252 335.88 92.1925 336.228 91.146 336.473C91.1096 336.481 91.0756 336.492 91.0392 336.5C90.9821 336.513 90.9072 336.541 90.8524 336.553C83.4914 338.333 78.7626 345.101 80.285 351.77C81.8077 358.44 88.9978 362.497 96.403 360.9C96.4565 360.888 96.5341 360.886 96.5898 360.873C96.6734 360.854 96.747 360.814 96.83 360.793C97.8623 360.567 99.1559 360.314 100.059 360.073C104.331 358.928 107.426 357.247 111.267 355.775C119.53 352.81 126.374 350.333 133.042 349.367C135.827 349.149 138.761 351.086 140.221 351.904L145.664 350.969C158.192 389.824 184.445 421.229 217.689 440.935L215.42 446.381C216.238 448.495 217.14 451.357 216.531 453.445C214.107 459.734 209.955 466.371 205.227 473.771C202.937 477.19 200.594 479.843 198.529 483.755C198.034 484.691 197.405 486.13 196.927 487.119C193.718 493.989 196.072 501.902 202.238 504.872C208.442 507.86 216.144 504.708 219.477 497.824C219.482 497.814 219.499 497.807 219.503 497.797C219.507 497.79 219.5 497.778 219.503 497.771C219.978 496.795 220.651 495.512 221.051 494.594C222.821 490.539 223.409 487.063 224.654 483.141C227.958 474.838 229.774 466.125 234.322 460.696C235.568 459.209 237.599 458.638 239.704 458.074L242.533 452.948C271.514 464.077 303.954 467.063 336.359 459.702C343.752 458.023 350.889 455.85 357.788 453.242C358.583 454.652 360.06 457.364 360.456 458.047C362.596 458.743 364.931 459.103 366.834 461.918C370.237 467.735 372.565 474.616 375.4 482.928C376.645 486.85 377.26 490.325 379.029 494.38C379.433 495.305 380.102 496.606 380.577 497.584C383.903 504.491 391.629 507.653 397.843 504.658C404.008 501.687 406.365 493.775 403.153 486.905C402.676 485.916 402.02 484.478 401.525 483.542C399.459 479.629 397.117 477.003 394.827 473.584C390.099 466.184 386.177 460.037 383.753 453.749C382.739 450.506 383.924 448.489 384.713 446.381C384.241 445.839 383.229 442.776 382.632 441.335C417.18 420.928 442.663 388.352 454.63 350.729C456.246 350.983 459.054 351.48 459.967 351.663C461.845 350.424 463.572 348.807 466.958 349.074C473.626 350.039 480.47 352.516 488.734 355.481C492.575 356.953 495.669 358.661 499.942 359.806C500.845 360.047 502.138 360.273 503.17 360.5C503.253 360.52 503.327 360.561 503.411 360.58C503.466 360.592 503.544 360.594 503.597 360.606C511.003 362.201 518.195 358.147 519.716 351.476C521.236 344.807 516.51 338.037 509.148 336.26C508.077 336.016 506.559 335.602 505.519 335.405C501.173 334.582 497.636 334.785 493.537 334.444C484.806 333.529 477.574 332.785 471.148 330.76C468.528 329.743 466.664 326.625 465.757 325.341L460.714 323.873C463.329 304.947 462.624 285.25 458.099 265.542C453.531 245.65 445.46 227.458 434.695 211.429C435.989 210.252 438.432 208.088 439.125 207.451C439.328 205.21 439.154 202.859 441.474 200.377C446.385 195.763 452.578 191.938 460.047 187.322C463.592 185.236 466.869 183.891 470.427 181.262C471.232 180.668 472.331 179.727 473.176 179.047C479.167 174.266 480.546 166.02 476.245 160.626C471.944 155.233 463.609 154.724 457.618 159.505C456.766 160.181 455.608 161.062 454.843 161.721C451.49 164.607 449.419 167.457 446.597 170.451C440.438 176.709 435.347 181.93 429.759 185.694C427.337 187.104 423.79 186.616 422.18 186.522L417.43 189.912C390.344 161.498 353.466 143.332 313.757 139.804C313.646 138.139 313.5 135.13 313.463 134.224C311.838 132.668 309.874 131.339 309.38 127.977C308.837 121.259 309.744 114.031 310.795 105.312C311.375 101.238 312.338 97.8542 312.502 93.4325C312.54 92.4273 312.48 90.9688 312.476 89.8819C312.475 82.2156 306.884 75.9994 299.987 76ZM284.349 172.907L280.64 238.445L280.373 238.579C280.124 244.442 275.301 249.124 269.379 249.124C266.953 249.124 264.714 248.344 262.894 247.015L262.787 247.068L209.069 208.973C225.579 192.732 246.696 180.73 271.033 175.202C275.479 174.193 279.922 173.443 284.349 172.907ZM315.651 172.907C344.065 176.403 370.342 189.274 390.478 209L337.107 246.855L336.92 246.775C332.183 250.236 325.508 249.377 321.816 244.746C320.303 242.848 319.509 240.618 319.414 238.365L319.361 238.339L315.651 172.907ZM189.589 233.453L238.637 277.342L238.584 277.609C243.011 281.459 243.664 288.14 239.971 292.772C238.459 294.669 236.434 295.942 234.261 296.536L234.207 296.75L171.336 314.903C168.136 285.631 175.032 257.177 189.589 233.453ZM410.038 233.48C417.326 245.297 422.844 258.495 426.129 272.803C429.375 286.94 430.19 301.051 428.851 314.689L365.66 296.483L365.607 296.216C359.948 294.668 356.47 288.91 357.788 283.135C358.328 280.769 359.583 278.767 361.284 277.288L361.257 277.155L410.038 233.48ZM289.927 280.732H310.021L322.51 296.349L318.026 315.837L299.987 324.513L281.894 315.81L277.411 296.322L289.927 280.732ZM354.345 334.177C355.199 334.134 356.049 334.211 356.88 334.364L356.987 334.231L422.02 345.229C412.502 371.979 394.29 395.153 369.956 410.661L344.712 349.661L344.792 349.554C342.473 344.164 344.794 337.843 350.129 335.272C351.495 334.614 352.922 334.249 354.345 334.177ZM245.122 334.444C250.084 334.514 254.536 337.96 255.689 343.014C256.229 345.38 255.966 347.724 255.075 349.794L255.262 350.035L230.284 410.421C206.932 395.43 188.331 372.984 178.381 345.443L242.853 334.498L242.96 334.631C243.681 334.498 244.413 334.434 245.122 334.444ZM299.587 360.9C301.315 360.837 303.07 361.191 304.737 361.995C306.923 363.048 308.611 364.705 309.674 366.693H309.914L341.696 424.143C337.572 425.526 333.331 426.708 328.994 427.694C304.687 433.215 280.458 431.542 258.518 424.063L290.22 366.72H290.273C292.176 363.162 295.783 361.04 299.587 360.9Z" fill="white"/>
</svg>
