<svg xmlns="http://www.w3.org/2000/svg" width="32" height="32" viewBox="0 0 32 32">
    <g fill="none" fill-rule="evenodd">
        <path fill="#BFC3C7" d="M22 0l.28.004c5.3.146 9.57 4.416 9.716 9.716L32 10l-.004.28c-.146 5.3-4.416 9.57-9.716 9.716L22 20l-.28-.004c-1.206-.033-2.358-.28-3.421-.703L7.179 30.782C6.425 31.56 5.389 32 4.305 32H2c-1.105 0-2-.895-2-2v-3.793c0-.453.18-.887.5-1.207l.047-.047c.295-.295.674-.49 1.085-.558l.888-.148C3.374 24.104 4 23.366 4 22.5V22c0-.552.448-1 1-1h.5c.828 0 1.5-.672 1.5-1.5V19c0-.552.448-1 1-1h.75c.69 0 1.25-.56 1.25-1.25v-.422c0-.53.21-1.039.586-1.414l1.882-1.882C12.164 12.076 12 11.057 12 10c0-5.523 4.477-10 10-10zm.142 4c-.466 0-.933.055-1.389.166-1.465.357-2.005 2.137-1.044 3.251l.105.113 4.656 4.656c1.065 1.065 2.87.61 3.322-.79l.042-.149c.447-1.837-.006-3.848-1.36-5.332l-.19-.199c-1.072-1.072-2.457-1.643-3.861-1.71L22.142 4z"/>
        <path fill="#95999D" d="M15.447 17.554c.542.47 1.136.884 1.77 1.23L4 32H2c-.293 0-.572-.063-.823-.177l14.27-14.27z"/>
    </g>
</svg>
